<?xml version="1.0" standalone="no"?>
<!DOCTYPE svg PUBLIC "-//W3C//DTD SVG 20010904//EN"
 "http://www.w3.org/TR/2001/REC-SVG-20010904/DTD/svg10.dtd">
<svg version="1.0" xmlns="http://www.w3.org/2000/svg"
 width="968.000000pt" height="505.000000pt" viewBox="0 0 968.000000 505.000000"
 preserveAspectRatio="xMidYMid meet">
<metadata>
Created by potrace 1.15, written by Peter Selinger 2001-2017
</metadata>
<g transform="translate(0.000000,505.000000) scale(0.100000,-0.100000)"
fill="#000000" stroke="none">
<path d="M3812 5035 c-28 -21 -28 -51 1 -69 12 -8 80 -30 150 -50 340 -95 554
-224 636 -382 69 -133 67 -390 -3 -602 -49 -147 -207 -370 -351 -496 -220
-192 -544 -352 -783 -387 -47 -6 -133 -9 -195 -7 -257 12 -474 106 -643 280
-139 143 -217 317 -217 488 -1 111 17 188 78 341 79 196 185 359 325 499 141
142 302 239 452 275 192 45 430 -20 453 -125 8 -37 27 -52 62 -48 26 3 28 6
27 51 -1 133 -169 227 -404 227 -229 0 -450 -107 -660 -319 -123 -123 -214
-254 -294 -421 -140 -293 -166 -481 -96 -692 56 -167 130 -279 259 -393 274
-242 690 -323 1052 -205 319 105 635 316 812 543 194 249 254 405 264 687 5
125 2 167 -11 220 -36 141 -104 242 -220 327 -119 88 -360 190 -583 247 -34 9
-68 19 -75 21 -7 3 -23 -2 -36 -10z"/>
<path d="M1330 4946 c-17 -16 -207 -70 -493 -141 -184 -45 -469 -136 -494
-157 -7 -6 -10 -14 -7 -19 3 -5 -17 -35 -45 -66 -250 -290 -281 -332 -281
-382 0 -33 5 -43 23 -52 21 -10 22 -16 23 -132 2 -187 81 -592 165 -851 21
-66 39 -129 39 -141 0 -59 75 -77 94 -22 8 22 3 50 -28 143 -91 278 -169 654
-181 873 -6 113 -7 119 -37 130 -20 7 -20 8 3 34 13 15 60 46 104 70 44 24
125 69 181 100 55 32 145 73 200 93 129 46 346 109 407 118 55 8 59 2 71 -99
18 -149 49 -242 172 -510 146 -321 183 -486 132 -585 -47 -90 -210 -201 -373
-253 -44 -14 -129 -47 -190 -72 -148 -63 -143 -62 -154 -32 -9 22 -29 37 -51
37 -21 0 -40 -34 -40 -71 0 -44 13 -35 -152 -103 -67 -28 -85 -47 -72 -80 12
-30 48 -28 140 7 l89 34 22 -23 c12 -13 28 -24 36 -24 23 0 47 34 47 66 0 33
-10 28 180 107 58 24 143 56 190 71 106 36 178 71 255 128 88 65 152 135 168
182 7 22 18 40 23 39 20 -3 46 21 124 118 86 106 99 132 65 137 -13 1 -29 -10
-47 -36 -41 -59 -130 -162 -140 -162 -4 0 -8 28 -8 63 0 103 -55 265 -194 569
-83 183 -108 261 -131 418 -9 57 -23 115 -31 128 -32 49 -96 54 -240 17 -54
-14 -101 -25 -104 -24 -10 0 215 79 267 93 50 13 52 13 43 -4 -7 -13 -5 -21 5
-30 12 -10 27 0 87 55 40 37 89 80 110 97 l38 30 0 -46 c0 -162 89 -603 195
-961 24 -82 49 -169 55 -192 8 -32 16 -43 30 -43 24 0 25 19 4 89 -20 70 -12
76 12 9 19 -53 46 -73 57 -44 4 9 -7 46 -22 83 -16 38 -41 122 -56 188 -14 66
-53 228 -85 360 -33 132 -71 304 -85 382 -14 79 -30 154 -35 168 -6 15 -10 39
-10 55 0 65 -36 99 -70 66z m-80 -126 c-36 -33 -74 -60 -84 -60 -48 0 -426
-131 -718 -249 -97 -39 -182 -71 -188 -71 -6 0 10 25 36 55 32 38 50 52 58 46
8 -6 32 -1 71 15 287 120 503 193 648 220 123 22 139 29 135 55 -2 18 5 24 37
34 71 22 71 15 5 -45z"/>
<path d="M8630 4748 c-104 -37 -230 -127 -318 -228 -138 -160 -219 -312 -274
-519 -29 -110 -36 -334 -13 -421 40 -156 145 -283 286 -349 133 -62 230 -83
409 -88 217 -7 358 21 520 103 140 71 296 220 361 346 74 144 94 355 50 521
-40 153 -168 347 -287 439 -175 133 -353 200 -569 213 -88 5 -108 3 -165 -17z
m244 -106 c34 -16 78 -43 98 -61 50 -44 98 -38 98 12 0 23 22 17 100 -26 158
-87 269 -203 345 -361 50 -104 65 -173 65 -295 0 -150 -40 -264 -133 -378
-170 -211 -434 -317 -750 -300 -333 17 -543 161 -588 402 -16 84 -5 241 24
356 53 207 134 348 286 499 183 181 305 222 455 152z"/>
<path d="M1232 4717 c-31 -38 62 -457 172 -777 94 -271 123 -345 139 -348 29
-6 26 30 -9 121 -119 307 -236 716 -255 892 -11 104 -26 138 -47 112z"/>
<path d="M6910 4426 c-17 -16 -218 -74 -475 -136 -93 -23 -245 -66 -336 -96
l-167 -56 -68 -81 c-38 -45 -88 -101 -111 -124 -24 -24 -43 -45 -43 -48 0 -3
-32 -45 -71 -94 -58 -74 -69 -93 -60 -108 6 -12 6 -25 0 -34 -15 -24 -10 -68
9 -78 16 -9 20 -28 25 -128 11 -202 95 -617 172 -849 19 -59 35 -117 35 -128
0 -60 75 -78 94 -23 8 22 3 50 -28 143 -92 280 -170 655 -181 874 -4 88 -8
108 -25 121 -18 16 -19 17 -1 33 10 9 53 36 97 59 43 24 124 69 180 100 55 32
145 73 200 93 129 46 346 109 407 118 55 8 59 2 71 -99 18 -149 49 -242 172
-510 146 -321 183 -486 132 -585 -45 -87 -213 -203 -358 -248 -67 -21 -253
-93 -299 -116 -59 -30 -68 -29 -75 9 -8 38 -36 60 -66 50 -24 -8 -34 -43 -27
-95 l5 -39 -94 -36 c-123 -48 -146 -71 -108 -109 21 -22 33 -20 125 15 71 27
84 29 110 19 25 -11 32 -10 49 5 11 10 20 26 20 35 0 10 18 25 48 38 111 50
263 110 342 136 47 16 110 41 140 56 122 61 260 184 282 251 7 22 15 38 18 37
23 -8 211 203 214 241 2 33 -38 22 -66 -17 -41 -59 -130 -162 -140 -162 -4 0
-8 28 -8 63 0 103 -55 265 -194 569 -83 183 -108 261 -131 418 -9 57 -23 115
-31 128 -33 51 -97 54 -256 13 -247 -64 -437 -137 -578 -223 -30 -18 -95 -55
-143 -81 l-89 -48 35 45 c64 84 96 115 124 122 15 4 127 46 248 94 233 92 484
184 566 205 46 12 48 12 39 -5 -7 -13 -5 -21 6 -31 13 -10 23 -5 67 37 29 28
87 81 130 119 62 54 81 65 88 54 6 -10 3 -15 -11 -17 -17 -3 -20 -11 -20 -52
0 -166 88 -604 195 -965 24 -82 49 -169 55 -192 8 -32 16 -43 30 -43 12 0 20
7 20 17 0 19 -27 121 -75 278 -57 187 -120 466 -155 680 -19 114 -26 214 -15
203 3 -3 17 -68 30 -144 14 -77 54 -258 90 -404 35 -146 74 -306 85 -356 26
-114 72 -228 92 -232 28 -5 28 27 -1 95 -16 38 -41 122 -56 188 -14 66 -53
228 -85 360 -33 132 -69 294 -80 360 -12 66 -30 154 -40 195 -11 41 -22 87
-25 103 -6 30 -31 36 -55 13z m-365 -230 c-196 -65 -362 -126 -543 -200 -90
-36 -168 -66 -174 -66 -5 0 7 20 28 45 33 41 39 44 53 31 14 -13 23 -12 76 10
246 103 471 183 590 209 112 25 101 14 -30 -29z"/>
<path d="M703 4202 c-52 -33 -19 -183 48 -221 33 -18 74 -8 95 25 13 19 14 28
5 37 -9 9 -16 9 -29 -1 -33 -24 -44 -25 -65 -3 -21 20 -21 22 -4 50 24 41 22
86 -5 105 -25 18 -28 19 -45 8z"/>
<path d="M520 4187 c0 -8 7 -31 15 -50 22 -53 19 -58 -21 -41 -59 25 -74 13
-74 -58 0 -44 6 -70 21 -94 34 -56 94 -60 119 -8 l15 30 20 -30 c39 -59 113
-39 103 26 -4 29 -28 35 -35 9 -8 -31 -20 -26 -43 19 -23 44 -25 71 -9 87 17
17 3 46 -19 39 -14 -5 -21 3 -32 37 -11 30 -21 43 -37 45 -15 2 -23 -2 -23
-11z"/>
<path d="M6792 4157 c-31 -38 62 -457 172 -777 94 -271 123 -345 139 -348 29
-6 26 30 -9 121 -119 307 -236 716 -255 892 -11 104 -26 138 -47 112z"/>
<path d="M360 4135 c-9 -11 -11 -41 -8 -106 l6 -90 -25 23 c-14 13 -38 42 -55
66 -17 25 -37 42 -49 42 -23 0 -36 -25 -22 -43 5 -6 27 -70 48 -142 41 -138
56 -168 77 -147 13 13 10 29 -27 146 l-15 49 56 -53 c51 -48 57 -51 71 -37 15
14 14 21 -1 75 -9 32 -16 92 -16 134 0 82 -15 113 -40 83z"/>
<path d="M3468 3913 c-65 -55 -74 -82 -33 -109 24 -16 27 -15 63 10 65 45 86
32 125 -76 28 -77 85 -164 138 -213 82 -74 222 -95 355 -54 120 37 213 154
159 199 -23 19 -61 3 -84 -35 -42 -72 -181 -111 -283 -81 -45 13 -65 26 -103
69 -26 28 -59 77 -72 107 -86 191 -103 210 -186 210 -35 0 -53 -6 -79 -27z"/>
<path d="M3092 3846 c-17 -19 -33 -43 -36 -53 -2 -10 -12 -45 -21 -78 -25 -89
-38 -105 -86 -105 -67 0 -181 21 -231 42 -58 25 -95 18 -104 -18 -5 -18 -1
-31 12 -43 47 -44 280 -88 374 -71 53 10 90 48 110 113 7 23 19 64 27 90 10
31 24 54 41 65 46 29 53 50 26 76 -28 28 -78 20 -112 -18z"/>
<path d="M747 3803 c-11 -10 -8 -43 3 -43 15 0 60 -75 95 -160 24 -56 37 -75
51 -75 20 0 24 24 9 59 -7 17 -5 18 16 12 13 -4 56 -9 94 -12 81 -7 125 6 125
36 0 18 -5 19 -72 14 -44 -3 -93 0 -125 8 l-51 13 26 63 c19 46 23 65 15 73
-17 17 -42 3 -53 -28 -26 -71 -25 -71 -44 -34 -18 33 -62 81 -76 81 -4 0 -10
-3 -13 -7z"/>
<path d="M360 3650 c-31 -31 -24 -66 30 -169 27 -51 47 -98 44 -103 -10 -15
27 -48 54 -48 30 0 92 60 92 89 0 27 4 26 34 -4 31 -31 50 -32 81 -1 15 16 31
22 47 19 16 -3 31 4 47 21 21 22 23 32 19 81 -6 77 -41 113 -113 117 -48 3
-50 2 -53 -24 -3 -25 -5 -26 -35 -17 -50 14 -67 11 -67 -11 0 -16 -7 -20 -33
-20 -28 0 -35 5 -45 33 -11 30 -45 57 -72 57 -6 0 -19 -9 -30 -20z"/>
<path d="M6263 3662 c-52 -33 -19 -183 48 -221 33 -18 74 -8 95 25 13 19 14
28 5 37 -9 9 -16 9 -29 -1 -33 -24 -44 -25 -65 -3 -21 20 -21 22 -4 50 24 41
22 86 -5 105 -25 18 -28 19 -45 8z"/>
<path d="M6100 3648 c0 -7 9 -37 21 -67 11 -30 16 -58 12 -62 -5 -5 -27 1 -50
12 -25 12 -50 18 -63 14 -17 -5 -20 -15 -20 -68 0 -85 35 -137 91 -137 36 0
53 23 59 84 l6 51 17 -40 c25 -55 45 -75 78 -75 32 0 52 28 47 62 -4 29 -28
35 -35 9 -8 -31 -20 -26 -44 20 -17 35 -19 46 -9 64 14 26 5 49 -15 41 -8 -3
-19 14 -32 47 -14 39 -24 53 -41 55 -13 2 -22 -2 -22 -10z"/>
<path d="M5940 3595 c-9 -11 -11 -41 -7 -108 l5 -92 -63 69 c-69 77 -95 83
-95 24 1 -38 71 -273 87 -289 14 -14 33 -3 33 19 0 9 -14 60 -30 112 -17 51
-30 95 -30 95 0 1 32 -30 70 -69 65 -65 72 -69 87 -54 15 15 15 21 -1 76 -9
32 -16 92 -16 134 0 82 -15 113 -40 83z"/>
<path d="M6327 3263 c-11 -10 -8 -43 3 -43 15 0 70 -92 70 -117 0 -12 5 -25
11 -29 6 -3 19 -26 30 -51 14 -32 24 -44 36 -41 18 4 22 29 9 60 -7 14 -3 15
31 7 92 -21 183 -6 183 31 0 19 -4 20 -63 14 -70 -7 -177 11 -177 29 0 6 10
35 22 64 17 42 19 56 10 65 -18 18 -43 -1 -57 -41 l-11 -34 -18 29 c-18 28
-55 63 -67 64 -3 0 -9 -3 -12 -7z"/>
<path d="M6224 3125 c-4 -9 -4 -32 -1 -51 5 -29 3 -35 -9 -30 -9 3 -33 9 -55
12 -33 6 -39 4 -39 -11 0 -13 -5 -16 -22 -11 -13 3 -32 6 -43 6 -15 0 -25 10
-33 34 -24 64 -103 70 -118 9 -5 -20 -2 -30 13 -43 30 -24 44 -56 37 -84 -5
-23 8 -40 30 -41 6 0 19 -15 30 -34 11 -19 15 -32 9 -28 -6 4 -16 0 -23 -8
-17 -20 13 -55 48 -55 29 0 92 60 92 87 0 34 13 34 36 -1 13 -19 33 -38 44
-41 29 -9 66 18 73 53 5 24 10 29 29 25 16 -3 31 4 47 21 21 22 23 32 19 81
-4 46 -10 62 -34 85 -36 35 -120 51 -130 25z"/>
<path d="M8616 3075 c-8 -9 -18 -32 -22 -53 -29 -171 -129 -508 -216 -732
l-34 -85 -64 -7 c-115 -12 -266 11 -412 61 -73 25 -377 175 -445 219 -59 38
-89 37 -100 -6 -5 -21 0 -31 30 -57 48 -41 406 -218 517 -256 108 -36 270 -61
363 -57 37 2 67 1 68 -2 0 -3 -39 -84 -88 -182 -60 -120 -94 -178 -108 -182
-11 -4 -85 -12 -165 -18 -246 -19 -424 18 -662 139 -157 79 -227 131 -298 222
-55 71 -90 92 -119 74 -28 -18 -23 -55 11 -94 18 -20 50 -58 72 -84 54 -65
136 -123 274 -193 141 -72 215 -101 342 -133 85 -22 116 -24 301 -23 l206 0
-154 -315 c-85 -174 -179 -359 -208 -411 -29 -52 -74 -135 -100 -184 -26 -49
-67 -108 -91 -131 -51 -49 -59 -89 -20 -106 18 -9 31 -7 62 9 21 10 80 30 129
43 79 20 113 23 285 23 165 0 211 -3 297 -22 132 -29 237 -68 376 -140 217
-113 498 -206 624 -207 78 0 106 13 147 69 43 57 19 233 -84 621 -284 1070
-321 1227 -384 1665 -20 135 -39 262 -42 283 -7 47 -42 74 -73 57 -27 -14 -27
-18 14 -303 66 -455 83 -532 306 -1382 152 -580 179 -699 186 -801 5 -88 5
-92 -17 -104 -36 -19 -101 -13 -215 20 -163 48 -257 84 -422 166 -84 41 -185
86 -223 99 -194 66 -440 93 -640 71 -69 -8 -133 -18 -143 -21 -18 -7 31 94
119 248 18 31 114 220 212 420 l178 362 110 34 c133 40 205 73 313 145 45 30
90 58 100 61 28 9 45 48 32 74 -21 38 -61 27 -173 -48 -56 -38 -141 -85 -188
-104 -151 -61 -147 -71 -48 130 l87 177 58 16 c110 31 184 85 199 146 8 29
-11 54 -40 54 -27 0 -40 -9 -55 -38 -13 -24 -114 -78 -119 -63 -1 4 13 48 31
97 88 231 197 619 197 702 0 46 -44 67 -74 37z"/>
<path d="M1262 2928 c-19 -19 -14 -44 16 -79 15 -18 51 -65 79 -103 121 -163
294 -257 674 -366 144 -41 406 -94 520 -105 151 -15 323 75 269 141 -18 20
-38 17 -104 -16 -48 -24 -71 -30 -126 -30 -199 0 -700 131 -918 240 -109 55
-184 115 -246 200 -84 114 -100 130 -126 130 -15 0 -31 -5 -38 -12z"/>
<path d="M3928 2878 c-14 -11 -18 -45 -22 -223 -3 -115 -7 -223 -8 -240 -1
-16 2 -98 7 -181 7 -130 6 -154 -8 -175 -15 -22 -15 -49 -7 -254 14 -334 17
-352 62 -367 4 -2 13 -66 18 -143 19 -265 87 -768 141 -1050 12 -63 20 -118
17 -121 -4 -3 -30 -1 -60 5 -169 34 -529 33 -863 -4 -71 -8 -175 -17 -231 -21
l-101 -6 -5 26 c-3 15 -4 64 -2 109 2 45 9 206 14 357 6 151 16 352 21 445 6
94 14 436 19 760 6 440 12 619 24 705 22 159 25 170 53 212 20 29 22 40 14 57
-13 23 -43 35 -69 27 -24 -8 -49 -52 -62 -112 -34 -150 -42 -268 -50 -814 -5
-305 -18 -742 -29 -970 -31 -650 -34 -771 -22 -818 16 -59 41 -72 131 -72 74
1 113 4 445 34 289 27 510 21 782 -20 36 -6 45 -3 67 19 33 33 33 52 0 214
-38 193 -112 713 -129 912 -8 97 -22 265 -30 375 -8 109 -20 205 -26 212 -7 9
-12 106 -15 281 l-3 268 182 0 c361 0 657 80 1072 287 252 126 310 172 287
223 -17 36 -52 32 -105 -12 -48 -40 -264 -152 -435 -227 -269 -118 -650 -197
-866 -181 -49 4 -100 11 -113 16 l-24 9 3 221 c3 209 2 221 -16 235 -24 17
-37 18 -58 2z"/>
</g>
</svg>
