<?xml version="1.0" standalone="no"?>
<!DOCTYPE svg PUBLIC "-//W3C//DTD SVG 20010904//EN"
 "http://www.w3.org/TR/2001/REC-SVG-20010904/DTD/svg10.dtd">
<svg version="1.0" xmlns="http://www.w3.org/2000/svg"
 width="747.000000pt" height="481.000000pt" viewBox="0 0 747.000000 481.000000"
 preserveAspectRatio="xMidYMid meet">
<metadata>
Created by potrace 1.15, written by Peter Selinger 2001-2017
</metadata>
<g transform="translate(0.000000,481.000000) scale(0.100000,-0.100000)"
fill="#000000" stroke="none">
<path d="M1276 4790 c-47 -14 -59 -46 -29 -75 13 -14 28 -16 68 -11 102 12
290 -24 443 -85 203 -81 386 -236 461 -391 55 -114 74 -213 67 -344 -10 -171
-63 -310 -177 -464 -177 -239 -427 -395 -742 -461 -120 -26 -366 -31 -507 -10
-344 49 -585 190 -690 404 -138 280 -69 627 173 865 140 139 327 240 494 269
88 15 113 16 190 5 115 -17 194 -37 266 -69 48 -22 62 -24 82 -15 33 15 32 46
-2 78 -58 54 -317 110 -472 101 -126 -7 -193 -26 -326 -92 -216 -107 -369
-251 -464 -435 -110 -214 -134 -417 -74 -630 107 -380 550 -611 1123 -586 218
9 358 42 539 127 203 95 363 226 490 398 122 166 179 321 188 516 9 190 -28
329 -125 472 -87 128 -281 277 -446 343 -199 80 -431 119 -530 90z"/>
<path d="M4280 4569 c-72 -36 -200 -156 -285 -268 -65 -86 -143 -242 -190
-381 -36 -109 -39 -123 -43 -265 -4 -139 -2 -158 22 -250 47 -175 128 -290
245 -348 57 -28 78 -32 160 -36 126 -4 197 11 316 69 352 170 533 390 607 735
15 74 16 292 0 361 -24 108 -52 164 -111 223 -99 98 -244 155 -441 173 -58 5
-130 12 -160 14 -48 5 -64 1 -120 -27z m210 -110 c45 -48 99 -40 100 14 0 13
6 16 23 12 12 -3 44 -9 70 -15 70 -15 160 -53 211 -91 84 -60 122 -142 136
-294 16 -162 -18 -333 -97 -495 -40 -81 -61 -109 -142 -191 -64 -63 -125 -112
-182 -147 -191 -115 -292 -148 -425 -140 -158 10 -259 117 -314 332 -48 189
-16 394 100 631 57 119 125 212 230 316 76 75 77 76 146 86 108 16 112 15 144
-18z"/>
<path d="M724 3714 c-62 -42 -84 -65 -131 -139 -52 -81 -97 -131 -135 -151
-32 -17 -81 -18 -109 -3 -26 13 -69 -12 -69 -40 0 -32 56 -71 100 -71 102 0
191 58 266 173 50 77 98 133 127 148 28 16 111 -34 123 -74 7 -26 15 -33 41
-35 27 -3 35 1 44 22 14 31 4 88 -19 109 -30 26 -153 87 -176 87 -13 0 -41
-12 -62 -26z"/>
<path d="M1235 3726 c-45 -20 -91 -62 -106 -97 -12 -29 -11 -33 10 -50 31 -26
35 -25 85 21 73 68 110 52 241 -98 100 -116 139 -142 218 -142 108 0 196 58
157 105 -16 19 -44 19 -97 -1 -66 -25 -101 -14 -163 54 -137 149 -176 186
-214 203 -48 22 -89 23 -131 5z"/>
<path d="M7229 3715 c-3 -2 -61 -11 -129 -19 -175 -20 -529 -83 -626 -110 -55
-15 -87 -20 -98 -14 -13 7 -46 -20 -161 -134 -168 -166 -204 -211 -188 -237 9
-14 7 -20 -7 -29 -26 -16 -36 -126 -21 -211 18 -102 70 -276 107 -365 41 -96
100 -292 114 -379 5 -35 17 -67 25 -74 23 -16 113 -7 290 29 259 52 287 58
409 74 186 24 202 35 234 164 12 48 21 68 25 57 7 -20 43 -23 50 -4 8 23 -6
81 -24 97 -20 17 -58 159 -84 310 -8 52 -31 174 -50 270 -18 96 -39 208 -45
248 -8 47 -17 75 -27 79 -30 12 -32 -13 -13 -122 11 -61 19 -112 19 -115 0 -3
-13 33 -28 80 -20 65 -32 88 -51 97 -50 25 -146 14 -392 -47 -68 -16 -133 -30
-145 -30 -32 0 -188 -57 -276 -102 l-79 -39 18 31 c10 16 71 83 135 147 127
126 148 138 314 183 126 33 595 110 595 97 0 -3 -30 -31 -67 -61 -51 -42 -75
-56 -99 -56 -36 0 -194 -31 -304 -60 -41 -11 -153 -38 -249 -59 -169 -38 -206
-54 -177 -76 10 -8 53 -2 153 22 576 138 549 133 540 110 -3 -8 1 -21 8 -27
12 -10 22 -6 50 19 20 17 41 31 48 31 7 0 23 14 35 30 23 31 150 140 163 140
4 0 10 -39 13 -87 13 -168 96 -662 128 -753 17 -47 36 -111 44 -143 l15 -58
-40 -50 -40 -50 -10 38 c-16 58 -38 211 -56 373 -31 290 -76 562 -102 613 -8
16 -22 27 -33 27 -25 0 -25 -6 -1 -78 25 -74 54 -251 86 -532 30 -258 49 -375
71 -443 l16 -47 -35 -48 c-20 -26 -45 -56 -56 -66 -28 -26 -27 -46 4 -46 18 0
36 14 65 53 23 28 50 62 60 73 11 12 20 26 20 31 0 11 68 104 83 114 19 13 -2
133 -38 228 -25 66 -43 139 -60 245 -13 83 -33 205 -45 271 -11 66 -23 176
-26 245 -4 69 -11 131 -17 138 -9 12 -30 16 -38 7z m-329 -404 c5 -11 38 -127
71 -258 34 -131 74 -285 89 -343 15 -58 30 -128 34 -155 8 -70 -9 -166 -32
-185 -12 -10 -70 -23 -148 -34 -71 -10 -203 -33 -294 -52 -209 -45 -289 -58
-296 -51 -3 3 -25 72 -48 154 -24 81 -60 188 -80 236 -39 93 -90 262 -101 335
-4 24 -4 68 -1 96 l7 53 97 46 c53 25 129 55 167 65 116 33 386 92 455 101 36
5 66 9 67 10 1 0 7 -8 13 -18z"/>
<path d="M6513 3172 c-8 -5 -12 -34 -11 -80 1 -56 5 -73 17 -77 9 -3 24 -18
33 -35 27 -48 98 -50 98 -2 0 12 3 13 12 4 7 -7 25 -12 40 -12 38 0 37 25 -2
45 -35 18 -38 35 -10 53 13 8 20 23 20 45 0 39 -8 52 -37 61 -27 9 -73 -32
-73 -64 0 -15 -6 -20 -25 -20 -22 0 -25 4 -25 34 0 36 -18 59 -37 48z"/>
<path d="M6284 3115 c-4 -9 -4 -55 -1 -102 l5 -85 -38 37 c-21 20 -46 52 -56
71 -10 19 -26 34 -35 34 -28 0 -29 -41 -3 -115 14 -38 35 -96 46 -127 15 -43
26 -58 40 -58 31 0 32 28 5 91 -14 32 -24 59 -22 59 2 0 18 -21 35 -46 24 -34
37 -44 53 -42 21 3 22 6 20 148 -1 139 -2 145 -22 148 -13 2 -24 -3 -27 -13z"/>
<path d="M6402 3064 c-17 -12 -22 -25 -22 -62 0 -80 56 -130 107 -96 22 14 24
21 19 56 -12 76 -66 129 -104 102z"/>
<path d="M6680 2768 c0 -13 23 -63 51 -113 27 -49 57 -107 66 -127 10 -23 23
-38 33 -38 21 0 34 27 22 44 -4 6 -13 23 -19 37 l-11 27 62 -5 c48 -4 64 -2
75 10 21 26 6 34 -67 39 -37 3 -78 10 -90 17 l-23 12 36 41 c38 45 43 65 20
75 -10 3 -28 -8 -50 -33 l-33 -39 -16 38 c-19 43 -56 53 -56 15z"/>
<path d="M6283 2674 c-3 -9 10 -47 30 -87 20 -40 39 -89 43 -110 9 -52 42 -74
85 -57 17 7 37 24 46 36 13 21 17 22 30 9 22 -22 59 -18 80 9 19 23 20 23 31
5 27 -43 73 -13 93 62 21 77 -8 131 -76 143 -45 9 -65 -6 -65 -47 0 -24 -3
-28 -12 -19 -14 14 -74 16 -83 3 -3 -6 -18 -3 -35 7 -28 16 -32 16 -59 0 -33
-18 -42 -13 -60 35 -12 30 -38 36 -48 11z"/>
<path d="M6890 3600 c-19 -4 -125 -24 -235 -44 -110 -20 -215 -42 -233 -49
-35 -12 -58 -40 -47 -57 8 -13 45 -13 45 0 0 13 50 26 215 55 354 64 367 68
351 94 -8 12 -43 13 -96 1z"/>
<path d="M4098 2933 c-8 -10 -23 -52 -33 -93 -9 -41 -43 -167 -76 -280 -79
-280 -100 -354 -159 -580 -47 -181 -91 -330 -221 -760 -81 -267 -157 -475
-229 -630 -78 -167 -90 -200 -90 -246 0 -73 51 -88 196 -58 59 12 106 15 184
10 241 -14 514 -48 608 -75 37 -10 142 -35 235 -55 92 -20 229 -57 303 -81
171 -56 270 -75 393 -75 80 0 104 4 141 23 50 25 86 72 96 126 9 44 -14 186
-67 416 -60 259 -81 333 -199 695 -102 315 -170 533 -170 550 0 4 42 10 93 13
113 8 340 54 507 104 92 27 174 62 310 131 102 52 193 101 203 110 31 27 16
82 -23 82 -8 0 -97 -43 -196 -95 -99 -52 -223 -108 -275 -125 -182 -60 -485
-120 -609 -120 l-45 0 -45 117 c-24 65 -82 194 -128 287 -96 197 -98 183 26
230 158 60 395 97 616 97 132 -1 214 -13 288 -42 85 -33 138 -19 124 35 -7 27
-24 35 -147 70 -125 35 -259 42 -464 22 -205 -21 -395 -64 -497 -115 l-73 -36
-66 110 c-59 99 -69 110 -97 113 -25 3 -34 -2 -43 -20 -9 -21 -2 -38 54 -131
117 -194 363 -715 346 -731 -16 -16 -321 66 -364 98 -10 7 -24 33 -29 57 -10
38 -15 44 -41 47 -78 9 -73 -111 8 -172 59 -45 270 -111 393 -122 l74 -7 21
-71 c56 -193 77 -262 164 -526 52 -157 103 -316 114 -355 44 -153 123 -505
141 -629 16 -106 -21 -146 -136 -146 -97 0 -208 21 -343 65 -73 25 -206 61
-295 81 -88 20 -210 49 -271 64 -108 28 -154 35 -448 65 -165 17 -324 19 -377
6 -85 -22 -90 -22 -90 -5 0 9 31 82 69 163 38 80 89 202 114 271 44 123 155
475 177 558 6 24 33 116 61 205 27 89 86 297 130 462 44 165 104 383 134 485
30 102 64 223 75 270 12 47 24 95 27 108 11 45 -47 71 -79 35z"/>
<path d="M511 2881 c-20 -20 -37 -120 -66 -386 -9 -77 -25 -219 -36 -315 -58
-512 -69 -664 -69 -990 0 -305 13 -676 29 -815 14 -124 51 -138 196 -78 99 42
225 63 406 70 195 7 303 -4 498 -52 75 -18 192 -43 261 -54 69 -12 166 -33
215 -47 96 -27 138 -24 152 12 3 9 -12 71 -35 138 -105 309 -177 745 -222
1347 -17 232 -41 441 -55 489 -13 44 -36 237 -41 353 -4 72 -11 138 -17 145
-13 17 -52 15 -67 -3 -22 -26 -6 -283 29 -489 34 -202 44 -291 66 -591 24
-325 76 -712 130 -961 23 -105 72 -290 90 -335 6 -15 1 -15 -47 -3 -29 8 -107
23 -173 35 -66 11 -176 34 -245 50 -181 44 -211 49 -354 59 -203 15 -445 -11
-586 -62 -30 -11 -67 -22 -81 -25 -26 -5 -27 -3 -32 44 -3 26 -11 235 -18 463
-17 542 -8 695 81 1455 11 94 23 193 26 220 13 134 28 222 40 242 20 31 17 60
-6 83 -25 25 -45 25 -69 1z"/>
</g>
</svg>
