<?xml version="1.0" standalone="no"?>
<!DOCTYPE svg PUBLIC "-//W3C//DTD SVG 20010904//EN"
 "http://www.w3.org/TR/2001/REC-SVG-20010904/DTD/svg10.dtd">
<svg version="1.0" xmlns="http://www.w3.org/2000/svg"
 width="657.000000pt" height="511.000000pt" viewBox="0 0 657.000000 511.000000"
 preserveAspectRatio="xMidYMid meet">
<metadata>
Created by potrace 1.15, written by Peter Selinger 2001-2017
</metadata>
<g transform="translate(0.000000,511.000000) scale(0.100000,-0.100000)"
fill="#000000" stroke="none">
<path d="M1492 5098 c-7 -7 -12 -24 -12 -39 0 -31 4 -33 235 -109 165 -54 396
-163 418 -197 4 -7 14 -13 21 -13 8 0 26 -17 42 -37 16 -21 35 -44 44 -53 29
-29 70 -137 81 -214 14 -95 0 -263 -32 -376 -12 -41 -22 -82 -24 -90 -2 -8 -4
-17 -5 -20 -1 -3 -2 -8 -1 -12 0 -5 -4 -8 -10 -8 -5 0 -7 -4 -4 -10 3 -5 1
-10 -5 -10 -6 0 -9 -4 -6 -9 4 -5 2 -11 -2 -13 -5 -1 -23 -29 -41 -61 -151
-266 -469 -524 -791 -641 -41 -15 -82 -30 -90 -33 -8 -4 -18 -7 -22 -8 -5 -2
-11 -4 -15 -5 -5 -1 -12 -3 -18 -5 -5 -1 -12 -3 -15 -5 -3 -1 -14 -4 -25 -6
-11 -2 -33 -5 -50 -8 -153 -25 -341 -11 -478 35 -34 12 -68 22 -74 22 -7 0
-13 4 -13 9 0 4 -3 7 -7 6 -11 -2 -61 23 -110 55 -24 15 -47 27 -52 27 -6 0
-15 8 -20 18 -6 9 -11 13 -11 8 0 -14 -167 164 -186 200 -10 19 -22 34 -27 34
-4 0 -5 5 -2 10 3 6 1 10 -5 10 -6 0 -8 5 -5 10 3 6 1 10 -5 10 -6 0 -8 5 -5
10 3 6 1 10 -5 10 -6 0 -8 5 -5 10 3 6 2 10 -3 10 -5 0 -9 6 -9 13 -1 6 -11
39 -23 72 -25 69 -34 122 -34 185 1 54 13 133 27 170 3 8 17 51 32 95 112 330
354 628 620 766 42 21 83 39 91 39 7 0 14 4 14 10 0 5 7 7 15 4 8 -4 15 -1 15
6 0 7 7 10 15 7 8 -4 17 -2 21 4 3 6 13 8 21 5 8 -3 20 -3 26 1 37 23 309 -12
329 -41 4 -6 8 -8 8 -4 0 3 15 -8 32 -25 18 -18 32 -35 31 -38 -1 -4 13 -24
32 -45 l35 -39 20 24 c29 34 25 72 -13 120 -116 147 -354 196 -587 120 -301
-99 -562 -347 -740 -704 -90 -181 -120 -285 -127 -436 -8 -178 27 -310 125
-464 118 -185 301 -319 545 -400 88 -28 121 -34 237 -39 169 -8 312 6 421 40
104 33 363 162 488 245 114 75 278 231 371 353 79 104 156 259 196 391 35 120
45 330 20 449 -28 135 -57 186 -164 287 -108 100 -189 147 -389 223 -101 38
-321 106 -343 106 -3 0 -11 -5 -18 -12z"/>
<path d="M5222 4471 c-86 -29 -162 -83 -272 -191 -121 -118 -169 -185 -240
-333 -63 -128 -87 -224 -100 -391 -19 -246 8 -344 132 -473 123 -127 207 -171
400 -208 116 -22 318 -20 433 4 310 64 564 272 655 536 85 247 9 558 -187 766
-154 163 -340 260 -549 288 -146 19 -219 19 -272 2z m143 -81 c-4 -7 2 -9 19
-4 16 4 26 2 26 -5 0 -6 7 -8 15 -5 8 4 15 1 15 -6 0 -6 5 -8 10 -5 6 3 10 1
10 -5 0 -6 5 -8 10 -5 6 3 10 1 10 -5 0 -6 5 -8 10 -5 6 3 10 1 10 -5 0 -6 5
-8 10 -5 6 3 13 -1 16 -9 3 -9 10 -13 15 -10 5 3 12 -2 15 -11 4 -9 20 -23 36
-31 27 -14 31 -14 49 2 10 9 19 25 19 36 0 10 5 18 10 18 6 0 10 -4 10 -10 0
-5 7 -6 17 -3 12 5 14 3 8 -7 -5 -9 -4 -11 3 -6 13 8 72 -23 72 -37 0 -4 5 -5
10 -2 6 3 10 1 10 -5 0 -6 5 -8 10 -5 6 3 13 -1 16 -9 3 -9 10 -14 15 -11 4 3
13 -4 19 -15 6 -11 14 -19 18 -18 4 0 39 -30 77 -67 39 -38 63 -65 55 -60 -8
5 0 -6 18 -23 19 -17 31 -36 28 -41 -3 -5 1 -12 10 -15 8 -3 12 -10 9 -16 -3
-5 -1 -10 5 -10 6 0 8 -4 5 -10 -3 -5 -1 -10 5 -10 6 0 8 -4 5 -10 -3 -5 -1
-10 5 -10 6 0 8 -4 5 -10 -3 -5 -1 -10 5 -10 6 0 8 -4 5 -10 -3 -5 -1 -10 5
-10 6 0 9 -4 5 -9 -3 -5 -1 -12 5 -16 6 -4 8 -11 5 -16 -4 -5 -1 -9 5 -9 7 0
10 -6 7 -14 -3 -8 -3 -17 0 -20 14 -14 24 -262 12 -287 -4 -8 -10 -29 -13 -45
-2 -16 -5 -29 -6 -29 -1 0 -3 -11 -4 -24 -2 -14 -8 -27 -15 -29 -6 -2 -9 -8
-5 -13 3 -5 0 -9 -5 -9 -6 0 -10 -3 -10 -7 3 -21 -2 -33 -13 -27 -7 5 -8 3 -3
-6 5 -9 -2 -22 -21 -38 -16 -13 -23 -21 -15 -17 7 4 -22 -28 -65 -71 -44 -43
-82 -78 -86 -79 -4 0 -14 -9 -22 -20 -9 -11 -16 -17 -16 -12 0 4 -9 -2 -20
-13 -12 -12 -25 -18 -30 -15 -6 4 -10 1 -10 -5 0 -6 -4 -8 -10 -5 -5 3 -10 1
-10 -5 0 -6 -4 -8 -10 -5 -5 3 -10 1 -10 -5 0 -6 -4 -8 -10 -5 -5 3 -10 1 -10
-5 0 -6 -4 -8 -10 -5 -5 3 -10 1 -10 -5 0 -7 -7 -10 -15 -6 -8 3 -15 0 -15 -6
0 -6 -3 -8 -7 -5 -3 4 -12 2 -20 -4 -7 -6 -13 -8 -13 -4 0 4 -6 2 -14 -4 -8
-6 -18 -11 -22 -10 -5 1 -11 0 -14 -1 -3 -1 -14 -3 -25 -5 -121 -19 -345 -28
-345 -13 0 5 -13 7 -30 3 -19 -4 -36 -2 -45 5 -8 6 -19 9 -25 5 -6 -4 -17 -1
-25 5 -8 7 -15 9 -15 5 0 -4 -6 -2 -14 4 -8 6 -18 11 -22 10 -5 -1 -11 -1 -14
1 -3 1 -16 4 -30 6 -14 3 -27 9 -28 14 -2 6 -8 8 -13 4 -5 -3 -9 0 -9 6 0 6
-4 9 -9 5 -5 -3 -16 1 -24 9 -8 8 -17 12 -21 9 -3 -4 -6 -1 -6 6 0 7 -4 10 -9
6 -6 -3 -14 3 -20 13 -5 10 -21 24 -35 31 -14 8 -23 18 -20 22 2 4 -7 16 -21
25 -14 9 -24 19 -21 21 2 3 -4 13 -15 24 -11 11 -17 24 -14 29 4 6 1 10 -5 10
-6 0 -8 5 -5 10 3 6 1 10 -5 10 -7 0 -10 7 -6 15 3 8 1 15 -5 15 -6 0 -9 7 -5
15 3 8 1 15 -5 15 -7 0 -9 13 -4 36 4 24 3 34 -4 29 -8 -4 -11 23 -11 84 0 51
4 93 10 96 6 4 10 21 10 38 -1 31 3 58 15 107 3 14 8 32 10 40 2 8 4 16 5 18
2 1 4 7 5 12 1 6 4 12 5 15 1 3 4 10 5 15 1 6 4 13 5 18 1 4 2 10 1 15 0 4 3
7 7 7 4 0 9 10 9 22 1 13 7 24 13 26 5 2 8 8 4 13 -3 5 0 9 6 9 6 0 8 5 5 10
-3 6 -1 10 5 10 6 0 8 5 5 10 -3 6 -1 10 5 10 6 0 8 5 5 10 -3 6 1 13 9 16 9
3 13 10 10 15 -3 5 0 9 6 9 6 0 8 5 5 10 -3 6 1 13 9 16 9 3 14 10 11 15 -3 4
4 13 15 19 11 6 18 15 15 20 -3 4 7 18 22 30 16 12 21 18 13 14 -8 -5 19 26
62 66 42 41 80 76 85 78 4 2 12 10 16 18 5 8 12 12 17 9 4 -3 11 2 14 11 3 8
10 12 16 9 5 -3 10 -2 10 4 0 14 78 53 90 46 6 -3 10 -1 10 5 0 6 4 8 10 5 5
-3 17 -2 25 2 23 13 78 15 70 3z"/>
<path d="M1159 3980 c-21 -11 -43 -34 -53 -54 -20 -43 -21 -43 9 -62 23 -15
27 -15 70 10 43 25 46 26 70 10 14 -9 22 -20 19 -25 -3 -5 -1 -9 4 -9 5 0 9
-6 9 -12 0 -24 88 -171 131 -219 25 -28 68 -61 104 -78 51 -26 73 -31 133 -31
87 0 158 20 221 63 89 59 124 148 61 155 -22 3 -36 -5 -62 -34 -34 -37 -102
-74 -136 -74 -10 0 -21 -4 -24 -10 -11 -18 -83 -11 -137 13 -70 31 -131 100
-175 195 -66 143 -105 183 -175 182 -18 -1 -49 -9 -69 -20z"/>
<path d="M740 3910 c-24 -24 -70 -116 -70 -141 0 -9 -9 -37 -20 -63 -17 -38
-25 -45 -43 -42 -21 5 -155 27 -187 31 -8 1 -22 5 -30 8 -8 3 -36 10 -62 15
-54 11 -68 2 -68 -41 0 -24 7 -31 43 -47 23 -10 99 -28 169 -39 144 -25 182
-21 230 25 23 23 88 163 88 192 0 5 16 26 35 47 48 50 43 69 -17 73 -37 2 -51
-1 -68 -18z"/>
<path d="M3495 3238 c-11 -11 -42 -35 -70 -53 -72 -48 -199 -175 -286 -285
-95 -121 -147 -192 -148 -205 -2 -17 -50 -23 -245 -30 -126 -5 -184 -10 -173
-17 9 -5 17 -15 17 -23 0 -13 33 -14 223 -9 122 3 227 6 233 7 6 0 9 11 6 24
-2 12 -8 20 -12 18 -5 -3 -11 -1 -14 4 -4 5 3 12 14 16 11 4 18 10 15 15 -3 4
2 11 11 14 8 3 12 10 9 16 -3 6 1 13 9 16 9 3 14 10 11 15 -3 4 4 13 15 19 11
6 18 15 15 20 -3 5 4 14 15 20 11 6 18 15 15 20 -3 5 6 17 20 26 14 9 25 21
25 28 0 6 17 26 37 45 21 18 29 27 18 20 -11 -8 14 21 55 64 72 74 96 96 69
60 -7 -10 1 -3 19 15 28 30 61 45 47 22 -3 -5 -1 -10 4 -10 6 0 11 -5 11 -11
0 -16 68 -103 130 -166 19 -20 28 -32 20 -28 -8 4 -1 -5 15 -20 17 -14 23 -24
15 -20 -8 4 -6 -1 5 -10 11 -9 19 -20 18 -25 -2 -5 6 -14 17 -20 11 -6 18 -15
15 -19 -3 -5 2 -12 11 -15 8 -3 12 -10 9 -16 -3 -5 -1 -10 4 -10 6 0 11 -7 11
-15 0 -8 5 -15 11 -15 5 0 8 -4 5 -9 -3 -5 1 -12 10 -15 8 -3 12 -10 9 -16 -3
-5 -1 -10 5 -10 6 0 8 -4 5 -10 -3 -5 -1 -10 4 -10 6 0 10 -3 9 -7 -2 -8 23
-64 32 -73 11 -11 9 -30 -3 -30 -7 0 -19 -6 -25 -12 -7 -7 -16 -13 -20 -13
-14 -1 -117 -58 -124 -69 -4 -6 -8 -8 -8 -4 0 4 -9 0 -20 -10 -12 -9 -23 -16
-26 -14 -6 4 -94 -48 -118 -70 -10 -9 -23 -15 -28 -12 -4 3 -8 0 -8 -6 0 -6
-4 -8 -10 -5 -5 3 -10 1 -10 -4 0 -6 -7 -11 -15 -11 -8 0 -15 -4 -15 -10 0 -5
-6 -10 -13 -10 -20 0 -48 -34 -50 -60 -1 -12 -11 -28 -22 -35 -179 -109 -310
-211 -478 -372 -43 -41 -80 -73 -82 -71 -11 11 -94 200 -157 357 -38 97 -75
185 -81 196 -6 11 -10 23 -9 28 1 4 -3 7 -9 7 -6 0 -9 7 -5 15 3 8 1 15 -5 15
-6 0 -9 7 -5 15 3 8 2 15 -3 15 -5 0 -9 10 -9 23 0 12 -6 36 -13 52 -6 17 -13
35 -14 40 -1 6 -3 15 -5 20 -12 49 -1 65 48 65 30 0 31 2 20 20 -11 16 -14 17
-21 5 -11 -20 -36 -19 -58 1 -24 22 -46 8 -24 -16 24 -26 1 -35 -35 -13 -28
16 -33 16 -58 2 -20 -11 -26 -21 -24 -39 4 -21 2 -22 -12 -11 -13 11 -19 11
-31 1 -8 -7 -12 -17 -8 -23 3 -5 2 -7 -4 -4 -6 4 -35 2 -64 -3 -30 -5 -120
-15 -202 -21 -81 -6 -150 -15 -152 -19 -8 -12 -105 16 -124 36 -14 15 -16 39
-13 177 4 190 0 221 -35 244 -24 16 -26 16 -38 -1 -16 -22 -23 -130 -29 -446
-6 -282 -4 -253 -14 -246 -5 3 -5 -16 -1 -42 4 -26 5 -59 2 -75 -5 -25 -8 -27
-42 -21 -20 3 -51 10 -70 15 -19 4 -38 6 -42 3 -4 -2 -10 0 -14 5 -3 6 -12 8
-20 4 -8 -3 -15 0 -15 7 0 6 -5 8 -10 5 -6 -3 -10 -1 -10 5 0 6 -4 8 -10 5 -5
-3 -10 -1 -10 5 0 6 -4 8 -10 5 -5 -3 -10 -1 -10 5 0 6 -4 9 -9 5 -6 -3 -13 1
-18 8 -4 7 -40 38 -78 69 -110 86 -158 105 -185 73 -11 -13 -10 -21 7 -43 29
-39 189 -166 253 -201 59 -31 246 -83 279 -76 23 4 25 -5 41 -190 6 -66 13
-133 15 -149 5 -29 5 -29 -16 -10 l-21 19 4 -74 c3 -63 7 -76 28 -93 13 -11
25 -25 26 -31 1 -7 7 -66 13 -132 29 -294 72 -628 112 -870 17 -99 34 -202 39
-230 4 -27 6 -52 5 -54 -2 -2 -51 2 -108 9 -134 16 -647 8 -837 -13 -74 -9
-174 -18 -221 -22 -79 -7 -86 -6 -88 11 -6 45 1 242 40 1104 6 135 11 418 12
630 0 212 4 365 8 340 4 -25 5 10 2 76 -3 70 -1 142 5 170 6 27 16 87 21 134
7 54 20 103 36 133 27 53 25 69 -10 85 -31 14 -46 8 -74 -28 -29 -41 -48 -118
-55 -235 -6 -94 -10 -207 -36 -1070 -6 -187 -15 -416 -21 -510 -14 -242 -23
-781 -15 -839 5 -31 16 -57 31 -72 21 -21 34 -24 98 -24 40 0 179 9 308 21
289 26 658 28 828 6 127 -17 142 -14 167 34 14 29 13 43 -21 242 -42 244 -91
586 -110 777 -13 116 -19 206 -30 392 -4 76 -10 136 -14 134 -3 -2 -6 40 -6
95 0 54 -4 99 -8 99 -5 0 -6 28 -2 63 4 44 3 58 -4 47 -9 -12 -11 -11 -11 7 0
20 3 22 33 15 55 -12 316 -3 590 22 75 6 137 9 137 5 0 -4 9 -9 21 -11 16 -2
43 -47 118 -194 53 -106 103 -200 111 -210 9 -11 10 -15 3 -10 -7 4 -13 4 -13
-1 0 -16 40 -67 62 -79 43 -25 65 -17 99 34 18 26 46 62 62 80 17 17 28 32 24
32 -4 0 26 33 66 73 98 97 247 261 343 378 56 69 89 100 114 109 60 21 221 93
217 97 -2 2 -20 -4 -40 -12 -45 -18 -47 -19 -47 -1 0 13 -5 13 -37 0 -96 -40
38 41 246 148 63 32 117 55 120 52 3 -4 2 -8 -4 -10 -16 -6 -101 -64 -94 -64
4 0 31 11 62 24 30 14 80 32 112 41 57 17 79 40 54 56 -12 8 -6 13 13 11 3 -1
11 5 18 13 9 11 7 20 -8 42 -35 52 -97 146 -126 192 -16 25 -42 65 -57 89 -16
23 -26 48 -23 56 7 18 -25 133 -40 144 -6 5 -22 12 -36 14 -14 3 -32 7 -40 9
-8 2 -41 30 -72 62 -52 52 -59 56 -78 45 -18 -11 -23 -10 -34 5 -17 22 -26 21
-51 -5z m-1227 -817 c8 -4 13 -10 11 -12 -1 -2 16 -51 39 -109 22 -58 44 -117
47 -132 7 -27 6 -28 -31 -29 -22 -1 -55 -2 -74 -4 -19 -2 -105 -6 -190 -9
-121 -4 -157 -8 -166 -20 -8 -12 -29 -14 -100 -11 -109 5 -113 6 -111 18 1 5
-4 12 -10 14 -7 3 -13 -2 -13 -11 0 -9 -4 -16 -10 -16 -5 0 -10 11 -10 25 0
14 5 24 11 23 6 -2 14 3 17 11 2 8 0 11 -5 8 -6 -4 -10 38 -11 109 l-1 116 62
-9 c100 -13 235 -7 254 13 11 11 27 14 47 11 17 -3 65 1 106 8 94 16 121 17
138 6z m811 -483 c-172 -188 -259 -280 -284 -300 -20 -15 -25 -27 -21 -44 3
-12 1 -26 -4 -29 -17 -11 -38 13 -33 38 3 14 -2 29 -11 36 -9 8 -16 19 -16 26
0 6 -27 65 -59 131 -33 65 -62 135 -65 154 -6 32 -5 33 5 10 7 -14 37 -77 67
-140 56 -116 58 -122 61 -140 0 -5 18 -9 38 -8 34 1 51 16 214 180 97 98 180
178 184 178 4 0 -30 -41 -76 -92z"/>
<path d="M5753 2898 c-14 -17 -26 -57 -68 -223 -39 -155 -162 -534 -178 -550
-7 -7 -8 -6 -3 3 15 25 -3 11 -34 -28 -18 -22 -38 -65 -46 -95 -8 -30 -23 -70
-34 -88 l-20 -34 -133 -6 c-72 -4 -143 -5 -157 -2 -14 2 -61 7 -105 11 -98 8
-133 12 -165 18 -46 9 -172 48 -216 66 -23 10 -45 16 -48 13 -3 -4 -6 -1 -6 6
0 7 -4 9 -10 6 -5 -3 -10 -1 -10 5 0 6 -4 8 -10 5 -5 -3 -10 -1 -10 5 0 6 -4
8 -10 5 -5 -3 -10 -3 -10 2 0 4 -26 21 -58 38 -31 16 -59 32 -62 35 -3 4 -27
22 -55 40 -68 47 -136 110 -129 121 3 6 60 37 126 70 88 44 118 63 110 71 -8
8 -19 8 -39 0 -25 -11 -26 -11 -10 2 18 14 14 46 -7 46 -15 0 -505 -244 -528
-263 -10 -8 -18 -19 -18 -26 0 -6 -7 -23 -16 -37 -10 -14 -13 -24 -8 -23 23 4
45 -2 39 -11 -3 -6 1 -7 9 -4 9 3 16 10 16 16 0 5 4 7 9 4 5 -4 11 -3 13 1 1
5 19 17 38 27 19 11 53 29 75 42 22 13 67 35 100 49 49 22 57 24 43 8 -48 -53
80 -167 332 -293 225 -113 435 -155 733 -148 104 2 137 0 137 -9 0 -20 -84
-201 -124 -268 -29 -49 -47 -66 -98 -95 -35 -19 -67 -45 -73 -57 -5 -13 -46
-43 -91 -68 -45 -26 -89 -54 -98 -64 -15 -17 -15 -20 2 -42 18 -22 22 -22 63
-10 24 7 74 29 112 47 37 19 67 30 67 24 0 -15 -220 -452 -305 -606 -41 -74
-75 -139 -75 -144 0 -6 -5 -10 -11 -10 -5 0 -8 -4 -4 -9 3 -5 -5 -17 -17 -25
-12 -9 -18 -16 -13 -16 6 -1 1 -9 -10 -18 -11 -10 -31 -30 -44 -45 -24 -26
-24 -27 -6 -47 19 -21 50 -25 87 -11 13 5 26 9 30 10 4 1 38 11 75 23 51 15
113 22 248 27 185 8 215 6 385 -32 111 -24 109 -24 115 -27 3 -1 8 -3 13 -4 4
-1 17 -7 30 -14 12 -7 22 -10 22 -6 0 3 6 1 13 -5 8 -6 17 -8 20 -4 4 3 7 1 7
-5 0 -7 3 -11 8 -10 4 1 25 -7 47 -19 83 -43 344 -153 433 -183 120 -40 237
-62 284 -55 59 10 124 57 138 100 26 79 -14 269 -240 1135 -66 256 -123 477
-125 491 -2 14 -10 53 -19 85 -23 92 -62 307 -101 562 -46 294 -59 337 -106
325 -30 -8 -33 -46 -14 -182 60 -438 112 -690 260 -1261 230 -887 268 -1057
250 -1127 -12 -49 -108 -42 -292 21 -40 14 -73 22 -73 19 0 -3 -7 0 -15 7 -8
7 -15 10 -15 6 0 -4 -11 1 -25 10 -14 9 -25 13 -25 9 0 -4 -6 -2 -13 4 -8 6
-17 8 -20 4 -4 -3 -7 -2 -7 3 0 5 -10 10 -22 11 -11 1 -25 8 -29 15 -5 7 -9 9
-9 3 0 -6 -3 -6 -8 0 -17 24 -326 152 -447 184 -85 23 -113 28 -233 40 -96 10
-349 -1 -408 -18 -30 -8 -29 -7 63 168 180 339 344 672 337 683 -4 6 -3 8 3 5
6 -4 13 6 17 24 4 19 16 36 37 47 39 22 252 163 259 172 3 3 12 9 20 12 8 3
61 40 118 82 109 81 122 103 78 131 -22 15 -26 14 -67 -13 -115 -77 -302 -192
-306 -188 -2 2 16 42 41 88 25 47 46 89 46 94 0 5 -6 0 -12 -11 -69 -128 -85
-136 -35 -19 31 73 106 211 93 171 -3 -11 -2 -16 5 -12 5 4 7 15 4 26 -4 12 9
46 37 97 58 105 216 598 251 787 14 73 14 78 -4 96 -22 22 -42 24 -56 7z"/>
<path d="M2875 2564 c-14 -15 -25 -32 -25 -37 0 -6 -10 -1 -23 11 -26 25 -43
27 -84 11 -15 -6 -48 -13 -73 -15 -114 -10 -135 -13 -138 -23 -2 -6 -7 -9 -10
-7 -4 2 -16 -5 -26 -15 -19 -19 -19 -19 7 -19 15 0 35 8 46 19 16 16 21 17 45
4 25 -13 35 -12 99 7 40 12 78 27 85 32 7 6 12 7 12 1 0 -5 11 -15 24 -21 19
-8 29 -7 47 6 13 9 27 21 31 28 5 7 17 10 28 7 24 -6 28 22 4 31 -22 9 -23 9
-49 -20z"/>
</g>
</svg>
