<?xml version="1.0" standalone="no"?>
<!DOCTYPE svg PUBLIC "-//W3C//DTD SVG 20010904//EN"
 "http://www.w3.org/TR/2001/REC-SVG-20010904/DTD/svg10.dtd">
<svg version="1.0" xmlns="http://www.w3.org/2000/svg"
 width="1466.000000pt" height="481.000000pt" viewBox="0 0 1466.000000 481.000000"
 preserveAspectRatio="xMidYMid meet">
<metadata>
Created by potrace 1.15, written by Peter Selinger 2001-2017
</metadata>
<g transform="translate(0.000000,481.000000) scale(0.100000,-0.100000)"
fill="#000000" stroke="none">
<path d="M13185 4799 c-130 -10 -213 -26 -250 -49 -16 -9 -61 -28 -100 -40
-38 -13 -96 -36 -127 -51 -73 -37 -91 -69 -90 -159 1 -92 27 -373 62 -665 63
-530 73 -580 156 -792 50 -128 67 -154 85 -136 9 9 -2 48 -45 160 -84 220 -86
232 -151 783 -33 277 -55 501 -55 567 l0 52 33 -19 c41 -24 235 -86 311 -99
133 -24 331 -10 618 43 251 46 420 94 516 146 28 15 54 25 56 22 4 -6 9 -350
6 -412 0 -14 3 -52 9 -85 11 -68 14 -376 5 -424 -5 -26 -13 -33 -48 -42 -86
-24 -267 3 -601 87 -55 14 -147 44 -205 66 -58 22 -141 52 -185 67 -136 47
-233 108 -294 185 -28 35 -29 40 -16 59 19 26 19 87 2 111 -12 17 -16 17 -50
2 -46 -19 -75 -75 -58 -113 6 -13 17 -23 25 -23 8 0 24 -15 35 -34 52 -83 190
-181 314 -222 45 -15 126 -44 179 -65 203 -80 592 -171 743 -173 55 0 113 3
129 7 l29 8 -7 -83 c-19 -241 -40 -427 -52 -455 -18 -47 -90 -88 -219 -127
-60 -19 -166 -51 -235 -73 -116 -35 -134 -38 -245 -38 -116 1 -125 2 -255 46
-161 54 -265 78 -281 62 -17 -17 15 -40 68 -48 26 -3 94 -22 150 -41 195 -65
259 -77 355 -70 58 4 124 17 195 40 60 19 138 42 175 50 81 19 210 67 258 98
19 12 42 21 52 19 9 -1 19 3 22 8 12 18 56 441 56 531 0 93 2 94 98 124 160
49 292 152 292 229 0 30 -46 118 -89 173 -22 28 -138 121 -173 140 -17 9 -25
20 -22 29 3 8 -6 26 -20 40 -21 21 -32 25 -56 20 l-30 -7 0 134 c0 169 -14
295 -36 319 -34 37 -101 58 -260 79 -355 47 -552 57 -779 39z m515 -53 c371
-41 460 -59 479 -95 12 -21 6 -30 -36 -59 -74 -52 -289 -113 -563 -161 -379
-66 -498 -64 -725 10 -116 38 -167 67 -180 103 -8 24 -6 31 17 51 52 45 214
96 473 149 92 18 373 19 535 2z m735 -694 c69 -52 97 -81 127 -131 21 -36 38
-75 38 -88 0 -55 -131 -149 -259 -187 -30 -9 -58 -16 -63 -16 -4 0 -8 114 -8
254 l0 254 39 -10 c21 -5 78 -40 126 -76z"/>
<path d="M7913 4318 c-13 -6 -23 -20 -23 -31 0 -18 4 -19 48 -11 151 27 240
-17 332 -164 32 -51 33 -56 27 -130 -8 -129 -52 -289 -103 -377 -49 -87 -94
-193 -94 -223 0 -26 22 -44 108 -87 75 -39 85 -50 52 -60 -28 -9 -60 -53 -60
-84 0 -15 16 -60 36 -101 66 -138 79 -247 41 -340 -75 -181 -228 -294 -415
-307 -88 -6 -110 -16 -89 -41 14 -18 152 -8 217 16 66 23 150 71 188 106 79
74 172 246 172 318 0 58 -31 178 -66 253 -19 42 -34 86 -32 98 2 13 19 30 42
43 79 45 70 69 -53 135 -42 22 -80 44 -85 49 -13 13 19 95 74 193 61 109 120
327 120 442 0 90 -113 242 -215 291 -39 19 -66 24 -125 23 -41 0 -85 -5 -97
-11z"/>
<path d="M6190 4287 c-66 -18 -110 -49 -178 -121 -114 -123 -174 -253 -175
-386 -1 -62 4 -84 25 -125 28 -55 110 -270 166 -435 l35 -105 5 -222 c5 -263
-4 -318 -74 -437 -54 -92 -95 -123 -185 -137 -70 -11 -113 -39 -91 -61 9 -9
24 -8 68 2 66 16 81 10 109 -46 16 -32 19 -61 20 -169 0 -120 -2 -134 -27
-190 -70 -156 -105 -385 -95 -625 7 -161 37 -292 97 -417 47 -96 91 -138 200
-191 63 -30 86 -36 140 -36 69 0 145 30 157 60 11 30 -19 33 -66 7 -63 -34
-132 -29 -224 17 -124 61 -186 160 -238 378 -19 78 -21 108 -16 302 5 197 7
225 35 330 16 64 40 136 53 160 22 42 24 56 24 205 0 149 -2 163 -24 205 l-23
45 23 15 c67 43 146 178 173 293 19 80 22 327 6 454 -16 122 -99 378 -195 593
-34 78 -37 91 -32 150 7 86 38 167 101 259 60 88 148 163 212 181 57 16 144 6
201 -22 33 -17 46 -19 55 -10 17 17 -26 60 -71 71 -67 18 -145 21 -191 8z"/>
<path d="M7330 4294 c-14 -3 -95 -14 -180 -25 -376 -49 -466 -67 -477 -96 -11
-28 12 -35 63 -18 77 26 571 96 666 94 123 -2 130 -14 118 -199 -18 -254 -31
-695 -35 -1179 -2 -266 -8 -488 -13 -493 -5 -5 -59 -2 -128 8 -69 10 -183 18
-269 18 l-150 1 -90 -40 c-57 -25 -91 -47 -93 -58 -4 -20 27 -23 60 -6 49 26
158 59 213 65 36 3 129 -3 233 -15 96 -12 191 -21 212 -21 72 0 70 -11 70 388
1 360 10 749 30 1228 11 277 9 301 -32 328 -23 15 -153 28 -198 20z"/>
<path d="M6625 4217 c-20 -29 -19 -97 6 -362 19 -195 21 -260 15 -575 -6 -350
8 -805 25 -824 5 -5 15 -4 24 4 13 11 15 23 9 59 -4 25 -8 307 -9 626 -1 483
-4 607 -19 740 -11 95 -16 198 -13 252 3 71 1 93 -9 97 -7 3 -20 -5 -29 -17z"/>
<path d="M8673 3574 c-8 -21 11 -133 51 -294 19 -75 37 -157 41 -184 7 -47 27
-68 45 -50 6 6 5 35 -2 74 -20 116 -21 112 47 132 102 28 97 31 149 -89 25
-60 46 -113 46 -119 0 -18 26 -35 44 -28 9 3 16 11 16 16 0 9 -37 96 -88 207
-15 33 -15 35 6 49 24 16 30 41 10 43 -7 1 -22 2 -33 3 -15 1 -22 13 -32 61
-6 33 -12 91 -13 128 0 65 -1 68 -22 65 -20 -3 -23 -10 -26 -53 -3 -43 6 -114
24 -191 5 -19 -3 -24 -76 -43 -45 -13 -84 -20 -86 -18 -10 10 -46 176 -51 240
-5 57 -9 67 -25 67 -10 0 -21 -7 -25 -16z"/>
<path d="M11759 3524 c-11 -14 -10 -18 6 -30 10 -8 26 -14 35 -14 9 0 20 -4
26 -9 5 -5 26 -18 47 -29 l38 -20 -78 -6 c-43 -3 -242 -11 -443 -17 -214 -7
-370 -16 -378 -21 -29 -24 7 -34 120 -32 344 5 924 28 929 36 4 7 9 7 13 0 3
-5 -8 -16 -26 -23 -48 -20 -190 -128 -185 -142 7 -22 38 -12 100 31 34 24 87
58 117 75 43 25 55 37 55 57 0 21 -11 30 -70 59 -62 29 -263 101 -284 101 -5
0 -15 -7 -22 -16z"/>
<path d="M9881 3470 c-65 -15 -131 -86 -131 -141 0 -41 36 -41 45 -1 9 43 63
90 111 97 82 14 135 -73 84 -138 -21 -27 -95 -67 -123 -67 -21 0 -23 43 -5
102 14 46 2 65 -27 44 -15 -11 -20 -30 -23 -86 l-4 -72 -34 5 c-20 3 -37 1
-43 -7 -16 -19 7 -36 50 -36 l36 0 42 -117 c24 -65 46 -131 50 -148 5 -21 14
-31 29 -33 32 -5 29 19 -23 158 -25 67 -45 127 -45 135 0 9 10 15 23 15 12 0
46 14 74 30 84 48 115 129 73 197 -33 55 -91 78 -159 63z"/>
<path d="M9285 3409 c-43 -12 -112 -74 -136 -122 -44 -85 14 -153 148 -177 67
-12 103 -3 103 25 0 10 -11 15 -34 15 -60 0 -136 23 -164 49 l-27 25 54 14
c65 16 106 43 126 82 19 37 19 65 -1 84 -17 18 -25 18 -69 5z"/>
<path d="M9483 3374 c-18 -9 -51 -36 -73 -60 -34 -37 -40 -50 -40 -88 0 -38 5
-48 35 -75 54 -47 134 -42 176 11 15 20 16 19 47 -12 23 -23 39 -30 59 -28 39
4 42 33 4 46 -38 14 -62 59 -69 134 -4 52 -8 61 -33 73 -36 19 -66 19 -106 -1z
m81 -50 c17 -43 -3 -128 -34 -144 -28 -15 -77 -12 -94 6 -32 31 -14 84 41 127
40 30 78 35 87 11z"/>
<path d="M4041 3206 c-10 -12 -9 -21 4 -45 26 -52 35 -161 42 -523 6 -338 7
-348 26 -348 19 0 20 6 14 388 -6 409 -13 483 -54 524 -17 17 -21 17 -32 4z"/>
<path d="M2980 3164 c-52 -2 -414 -8 -805 -14 -863 -13 -1363 -27 -1510 -40
-60 -6 -166 -15 -235 -20 -157 -13 -389 -57 -413 -78 -15 -13 -16 -18 -3 -30
10 -10 19 -11 32 -4 11 5 34 12 53 16 30 5 33 4 28 -15 -3 -12 0 -209 8 -438
8 -229 19 -614 25 -856 12 -501 36 -1097 50 -1291 10 -128 39 -274 61 -300 6
-7 17 -10 25 -7 18 7 19 67 0 82 -34 29 -63 461 -86 1311 -6 206 -15 539 -20
740 -5 201 -13 455 -16 565 -6 176 -5 203 9 217 18 17 48 23 212 38 332 31
507 40 975 49 283 6 776 16 1095 22 542 11 1322 7 1478 -7 63 -6 67 -5 67 14
0 27 -16 30 -260 42 -173 9 -497 10 -770 4z"/>
<path d="M2906 3073 c-3 -3 -24 -5 -46 -5 -29 1 -43 -4 -47 -15 -10 -24 16
-186 32 -202 16 -17 35 -6 35 20 0 25 11 24 76 -8 40 -19 57 -24 66 -15 18 18
3 38 -46 61 l-45 22 21 41 c16 30 19 46 12 65 -9 25 -46 48 -58 36z"/>
<path d="M3464 3000 c-43 -46 -62 -49 -93 -16 -43 46 -101 35 -101 -18 0 -35
27 -118 42 -127 21 -13 38 11 38 53 0 35 2 38 19 28 30 -15 66 -12 92 9 l24
19 15 -56 c11 -40 20 -58 34 -60 29 -6 38 12 21 44 -8 16 -15 52 -15 81 0 33
-5 57 -16 67 -8 9 -17 16 -19 16 -2 0 -21 -18 -41 -40z"/>
<path d="M3107 3012 c-10 -10 -17 -25 -17 -33 0 -8 -9 -29 -20 -47 -36 -59
-16 -109 25 -59 28 36 67 36 85 1 16 -29 45 -48 60 -39 17 10 11 41 -11 61
-19 17 -19 19 -3 31 22 16 11 43 -19 43 -14 0 -32 12 -45 30 -26 35 -33 36
-55 12z"/>
<path d="M2837 2786 c-35 -36 -34 -122 8 -441 13 -99 29 -234 35 -300 6 -66
14 -129 17 -140 3 -11 9 -119 12 -240 6 -211 7 -220 26 -220 19 0 20 6 17 175
-3 221 -24 455 -72 810 -22 163 -25 291 -9 322 8 16 8 24 -4 35 -12 13 -16 12
-30 -1z"/>
<path d="M1275 2759 c-142 -25 -293 -41 -408 -43 -99 -2 -131 -6 -137 -17 -5
-8 -5 -18 0 -23 14 -14 247 -6 395 15 320 45 308 44 427 30 62 -8 138 -18 168
-22 30 -5 101 -12 157 -15 l102 -7 10 -46 c6 -25 20 -98 30 -161 11 -63 24
-135 30 -160 6 -25 11 -59 11 -76 l0 -31 -152 -7 c-287 -13 -462 -54 -678
-156 -142 -67 -207 -93 -262 -104 -34 -8 -37 -33 -5 -41 31 -8 131 28 297 108
121 58 182 78 355 118 77 18 211 29 340 29 89 0 135 4 143 12 16 16 15 88 -2
157 -8 31 -27 130 -42 221 -14 91 -31 171 -37 178 -6 8 -40 12 -101 12 -50 0
-152 9 -226 20 -141 20 -326 24 -415 9z"/>
<path d="M3129 2724 c-19 -24 -24 -247 -9 -439 12 -159 13 -168 60 -455 16
-102 30 -203 31 -225 2 -59 8 -75 29 -75 28 0 30 19 10 146 -10 66 -30 192
-44 280 -46 294 -67 611 -46 714 6 33 5 48 -4 58 -10 11 -15 10 -27 -4z"/>
<path d="M3375 2689 c-8 -25 0 -118 25 -299 43 -304 62 -503 65 -682 2 -103 6
-192 10 -198 5 -8 11 -8 20 0 41 34 21 377 -50 892 -14 97 -25 207 -25 243 0
58 -2 65 -19 65 -11 0 -23 -9 -26 -21z"/>
<path d="M762 2628 c-8 -10 -8 -27 -1 -58 37 -162 46 -301 30 -445 -9 -80 -6
-95 19 -95 25 0 28 14 35 170 5 118 3 153 -19 274 -25 140 -42 180 -64 154z"/>
<path d="M1050 2550 c-102 -56 -151 -134 -135 -216 13 -72 118 -137 182 -113
37 14 26 45 -14 41 -35 -3 -65 9 -100 41 -27 24 -30 74 -8 121 20 41 121 110
150 101 39 -12 50 -10 53 11 2 14 -5 24 -23 32 -36 17 -43 15 -105 -18z"/>
<path d="M1285 2571 c-45 -19 -57 -45 -50 -108 4 -32 7 -67 6 -78 0 -11 6 -33
14 -50 8 -16 17 -51 20 -77 5 -40 10 -48 27 -48 20 0 21 4 15 71 -6 70 -5 72
24 96 66 56 79 134 28 177 -32 27 -50 31 -84 17z"/>
<path d="M1610 2515 c0 -8 5 -24 11 -34 16 -25 3 -68 -31 -102 -36 -36 -62
-37 -90 -1 -17 21 -21 36 -17 69 7 66 -32 82 -47 20 -17 -70 40 -167 99 -167
87 0 175 138 131 205 -18 27 -56 34 -56 10z"/>
<path d="M13985 2313 c-154 -8 -302 -24 -376 -39 -76 -17 -82 -17 -91 -1 -13
23 -37 21 -46 -4 -4 -11 -5 -44 -2 -74 l6 -53 -114 -7 c-113 -7 -152 -21 -135
-48 5 -7 13 -30 18 -52 8 -31 15 -41 34 -43 23 -4 24 -2 18 37 -3 23 -2 43 2
45 32 20 781 53 932 42 52 -4 100 -11 106 -14 7 -5 8 -27 3 -67 -5 -33 -11
-226 -15 -430 -3 -203 -9 -398 -14 -432 -4 -34 -6 -69 -5 -77 1 -8 -10 -16
-28 -20 -21 -4 -29 -11 -26 -23 3 -19 45 -29 83 -19 21 5 23 12 22 58 -1 117
31 964 37 980 4 9 1 29 -8 46 -13 25 -23 31 -63 36 -82 10 -328 10 -574 1
l-236 -8 4 30 c5 30 6 30 116 51 210 40 431 49 688 28 107 -8 204 -18 213 -22
16 -6 18 -16 13 -93 -25 -361 -29 -752 -11 -887 l6 -41 -49 -9 c-32 -6 -48
-14 -48 -24 0 -11 15 -16 59 -18 32 -2 63 1 69 7 10 10 10 149 1 194 -10 49 3
513 22 799 7 101 2 113 -54 122 -44 7 -470 37 -486 34 -6 -1 -38 -3 -71 -5z"/>
<path d="M6662 2288 c-16 -16 -15 -140 3 -345 12 -136 25 -475 39 -998 2 -44
5 -50 25 -53 l23 -4 -6 164 c-3 89 -11 298 -16 463 -6 165 -17 391 -26 503 -8
112 -13 216 -9 231 7 33 -14 58 -33 39z"/>
<path d="M7524 1818 c1 -408 -9 -916 -17 -925 -2 -2 -33 1 -68 7 -35 6 -110
15 -166 22 l-101 12 91 44 c51 25 110 48 132 51 34 5 40 10 40 31 0 35 -23 36
-96 1 -34 -17 -64 -29 -66 -27 -2 2 24 25 59 52 111 84 128 99 128 112 0 29
-34 21 -118 -27 -49 -29 -113 -61 -143 -72 l-54 -20 40 38 c22 21 76 70 119
109 56 51 77 77 73 88 -10 27 -31 19 -142 -55 -59 -38 -109 -69 -111 -67 -3 4
178 160 264 228 52 41 61 62 29 68 -9 2 -71 -30 -139 -71 -68 -41 -152 -89
-188 -107 l-65 -32 38 39 c36 38 90 79 257 196 72 51 92 79 73 98 -11 11 -81
-16 -239 -89 -61 -29 -114 -52 -119 -52 -5 0 68 52 161 116 247 169 282 201
239 218 -8 3 -94 -36 -191 -86 -167 -86 -293 -142 -301 -134 -4 3 89 80 192
158 95 72 245 209 245 223 0 37 -39 24 -196 -68 -95 -55 -284 -147 -302 -147
-17 0 99 104 222 198 188 145 196 152 196 168 0 22 -42 17 -112 -15 -90 -40
-308 -114 -316 -107 -3 4 14 26 37 50 41 41 47 66 17 66 -17 0 -116 -105 -116
-122 1 -51 74 -49 219 6 52 20 96 35 98 32 2 -2 -31 -30 -74 -62 -43 -32 -113
-93 -156 -135 -62 -60 -78 -81 -75 -100 2 -17 10 -25 29 -27 28 -3 158 50 268
109 40 23 70 36 67 30 -4 -6 -64 -56 -134 -110 -70 -54 -145 -117 -167 -140
-37 -39 -38 -42 -22 -58 15 -16 20 -16 74 1 32 10 98 36 147 57 50 21 91 37
92 36 2 -1 -52 -39 -119 -84 -68 -45 -133 -93 -146 -107 -26 -27 -23 -56 6
-56 19 0 150 53 222 89 53 27 99 45 86 33 -5 -5 -44 -34 -85 -65 -128 -97
-192 -161 -188 -188 4 -34 50 -30 135 12 92 45 93 45 53 8 -102 -93 -170 -164
-167 -173 7 -22 49 -17 104 13 31 17 58 29 60 28 1 -2 -17 -18 -41 -36 -47
-36 -72 -72 -62 -90 11 -17 40 -13 98 14 77 36 90 31 36 -16 -27 -22 -48 -49
-48 -59 0 -15 -12 -19 -67 -25 -37 -4 -108 -20 -157 -36 -50 -16 -103 -29
-118 -29 -34 0 -43 -14 -22 -35 19 -18 37 -16 154 21 143 44 290 51 440 21 41
-9 100 -18 131 -22 55 -6 56 -5 68 23 7 16 11 54 10 83 -1 30 4 169 10 309 10
238 7 806 -5 948 -5 50 -9 62 -23 62 -16 0 -17 -30 -17 -452z"/>
<path d="M4095 1838 c9 -634 24 -1179 33 -1218 6 -25 13 -35 27 -35 15 0 20 6
18 25 -17 225 -23 404 -28 870 -3 305 -8 603 -12 663 -5 96 -8 107 -25 107
-18 0 -18 -14 -13 -412z"/>
<path d="M7932 2181 c-60 -21 -92 -46 -92 -73 0 -24 32 -24 54 1 26 28 98 45
169 38 50 -5 66 -10 84 -32 42 -49 28 -114 -48 -226 -75 -111 -60 -184 50
-243 50 -27 53 -30 35 -42 -39 -27 -44 -36 -44 -70 0 -46 23 -125 71 -246 53
-132 50 -202 -13 -274 -49 -56 -101 -77 -188 -78 -62 -1 -75 -4 -78 -18 -5
-26 62 -41 128 -28 120 23 207 104 230 214 13 62 6 97 -39 209 -39 96 -72 214
-65 231 7 18 89 34 145 29 77 -8 111 24 69 62 -18 16 -25 17 -74 5 l-54 -13
-63 39 c-130 78 -133 90 -54 225 58 97 71 140 61 190 -20 101 -149 147 -284
100z"/>
<path d="M13465 1979 c-146 -11 -335 -41 -336 -53 0 -6 0 -44 1 -84 l1 -73
-40 2 c-22 2 -43 0 -47 -4 -11 -11 -7 -570 5 -732 6 -82 16 -220 22 -305 10
-153 19 -185 45 -157 12 12 8 113 -16 397 -12 149 -22 651 -13 717 l5 41 61 6
c73 8 777 23 794 18 20 -6 23 -68 26 -472 2 -353 -9 -602 -29 -653 -6 -17 -40
-22 -211 -32 l-103 -6 0 25 c0 34 41 80 135 149 83 61 100 80 90 97 -16 26
-108 3 -316 -80 -56 -22 -104 -39 -106 -36 -9 9 91 80 222 156 77 45 148 89
158 98 25 22 22 50 -7 58 -45 11 -243 -48 -359 -108 -72 -37 -48 -11 45 47
219 137 308 206 308 237 0 27 -39 31 -111 13 -64 -16 -212 -86 -278 -131 -20
-13 -40 -24 -45 -24 -17 0 69 62 189 136 157 97 219 145 223 172 10 69 -153
13 -408 -141 -164 -100 -67 -12 180 162 30 22 72 57 94 79 60 62 33 92 -51 57
-51 -21 -50 -14 2 24 44 32 63 66 51 96 -8 23 -44 18 -115 -15 -45 -22 -62
-26 -57 -15 9 24 -4 45 -30 45 -23 0 -77 -24 -238 -108 -98 -51 -105 -57 -84
-78 14 -14 22 -12 94 25 44 22 99 53 124 68 61 36 51 27 -50 -48 -83 -61 -100
-76 -100 -92 0 -23 37 -13 121 34 321 177 325 175 69 -23 -182 -140 -210 -166
-210 -190 0 -36 47 -18 161 62 185 129 231 160 243 160 14 -1 -4 -15 -150
-120 -143 -103 -214 -171 -214 -205 0 -20 5 -25 25 -25 28 0 111 40 210 100
68 42 169 95 212 111 48 18 6 -18 -91 -78 -210 -129 -322 -221 -314 -259 7
-33 54 -18 194 62 126 72 255 129 276 122 11 -4 -69 -59 -307 -213 -180 -117
-235 -160 -235 -186 0 -33 34 -23 203 61 150 73 342 148 354 136 5 -5 -2 -10
-152 -97 -129 -75 -225 -161 -225 -202 0 -40 25 -36 196 32 206 82 209 82 137
23 -80 -67 -105 -103 -101 -145 l3 -32 -115 -11 c-63 -7 -156 -12 -206 -13
-70 -1 -93 -4 -97 -15 -16 -42 44 -44 378 -11 77 8 194 17 260 21 140 8 172
20 180 67 19 112 33 383 29 567 -3 113 -7 284 -8 381 -3 184 -10 214 -49 228
-22 8 -646 -3 -739 -13 -45 -5 -47 -4 -50 22 -2 15 -1 41 0 58 4 32 5 32 80
43 169 24 362 32 615 25 l258 -7 -5 -96 c-10 -163 -11 -781 -2 -867 l8 -81
-38 -10 c-41 -9 -58 -38 -30 -49 25 -9 85 5 105 25 17 17 17 25 5 112 -15 109
-17 375 -4 739 6 193 6 258 -3 266 -15 14 -554 24 -702 13z"/>
<path d="M9067 1863 c-4 -4 -5 -44 -1 -89 l7 -83 -62 -7 c-33 -3 -68 -12 -76
-18 -13 -9 -34 -3 -103 31 -48 24 -95 43 -104 43 -9 0 -20 5 -23 10 -4 6 20
10 65 10 56 0 72 3 77 16 10 27 -18 35 -105 31 -89 -5 -124 -22 -115 -56 5
-21 23 -31 114 -65 136 -50 169 -77 169 -139 0 -37 -6 -48 -37 -79 -40 -38
-111 -78 -139 -78 -9 0 -18 9 -21 20 -8 30 -37 21 -41 -13 -8 -64 45 -74 141
-26 69 34 112 70 133 111 16 32 18 101 4 129 -9 16 -7 19 8 19 11 0 40 3 66 6
l46 7 0 -43 c0 -87 51 -180 99 -180 34 0 35 21 3 46 -32 26 -46 59 -57 136
l-6 47 48 23 c74 35 56 69 -24 43 -21 -7 -22 -4 -25 71 -2 62 -6 79 -18 82 -9
1 -19 -1 -23 -5z"/>
<path d="M10020 1855 c-21 -25 -23 -91 -5 -172 20 -92 82 -233 102 -233 27 0
26 33 -5 96 -18 36 -32 67 -32 69 0 3 13 5 29 5 45 0 142 -49 182 -91 38 -40
83 -59 101 -41 15 15 2 42 -21 42 -11 0 -33 17 -50 39 -23 29 -51 47 -110 71
l-79 33 46 37 c62 49 85 76 77 89 -12 20 -41 11 -71 -20 -16 -17 -50 -43 -76
-59 -38 -24 -47 -26 -52 -14 -9 24 -7 107 4 124 5 9 5 19 -2 27 -14 17 -23 16
-38 -2z"/>
<path d="M11919 1764 c-11 -14 -10 -18 6 -30 10 -8 26 -14 35 -14 9 0 20 -4
26 -9 5 -5 26 -18 47 -29 l38 -20 -78 -6 c-43 -3 -242 -11 -443 -17 -214 -7
-370 -16 -378 -21 -29 -24 7 -34 120 -32 344 5 924 28 929 36 4 7 9 7 13 0 3
-5 -8 -16 -26 -23 -48 -20 -190 -128 -185 -142 7 -22 38 -12 100 31 34 24 87
58 117 75 43 25 55 37 55 57 0 21 -11 30 -70 59 -62 29 -263 101 -284 101 -5
0 -15 -7 -22 -16z"/>
<path d="M9329 1703 c-32 -27 -89 -133 -89 -165 0 -20 53 -66 86 -74 50 -13
131 1 167 29 l35 27 18 -28 c25 -38 55 -61 82 -62 31 0 29 34 -3 48 -40 18
-59 67 -56 148 1 54 -2 74 -14 84 -22 18 -45 -4 -46 -44 0 -28 -1 -29 -12 -12
-38 59 -59 76 -97 76 -27 0 -48 -8 -71 -27z m131 -88 c31 -54 31 -57 15 -75
-28 -31 -81 -44 -125 -31 -58 17 -66 33 -45 82 10 22 34 53 52 70 43 37 60 29
103 -46z"/>
<path d="M9762 1710 c-39 -24 -87 -97 -96 -145 -8 -38 13 -88 39 -99 29 -11
193 -6 220 6 33 15 29 44 -5 40 -54 -8 -193 -3 -203 7 -17 17 3 81 40 122 36
40 64 47 108 30 20 -9 45 3 45 21 0 12 -63 38 -92 38 -13 0 -38 -9 -56 -20z"/>
<path d="M2380 920 c-52 -4 -153 -8 -225 -9 -123 -2 -179 -6 -421 -30 -187
-19 -627 -40 -899 -43 l-270 -3 3 23 c3 18 -1 22 -26 22 -44 0 -56 -36 -23
-69 18 -18 35 -19 368 -15 358 5 734 24 953 49 69 8 262 19 430 26 168 6 308
13 313 16 15 9 6 31 -15 37 -26 6 -52 6 -188 -4z"/>
<path d="M1590 730 c-12 -8 -12 -14 3 -45 21 -45 22 -117 1 -161 -18 -38 -68
-79 -84 -69 -24 15 -50 86 -50 138 0 57 -15 82 -39 68 -22 -14 -10 -127 19
-185 46 -90 89 -96 158 -22 57 62 75 135 52 217 -12 44 -40 71 -60 59z"/>
<path d="M901 714 c-13 -9 -29 -32 -37 -50 -18 -43 -18 -165 0 -208 27 -65
104 -97 151 -62 31 22 13 45 -32 39 -30 -4 -42 -1 -56 15 -44 48 -44 176 -1
219 20 19 29 22 68 17 38 -6 47 -4 52 11 4 10 1 21 -7 26 -24 15 -113 10 -138
-7z"/>
<path d="M1230 688 c-59 -16 -65 -28 -51 -93 10 -44 10 -59 0 -71 -9 -12 -7
-19 16 -39 22 -22 26 -32 23 -68 -2 -34 0 -42 16 -45 28 -6 37 17 30 71 -6 47
-5 49 36 85 77 66 85 138 17 162 -35 12 -40 12 -87 -2z"/>
<path d="M973 512 c-30 -11 -43 -22 -43 -35 0 -16 6 -18 38 -14 20 3 47 8 59
12 22 7 22 5 25 -91 3 -98 3 -99 28 -99 l25 0 -4 105 c-1 58 -7 113 -12 123
-12 21 -57 21 -116 -1z"/>
<path d="M3485 224 c-33 -2 -231 -13 -440 -24 -209 -11 -531 -29 -715 -40
-884 -53 -1165 -67 -1435 -75 -409 -13 -728 -33 -742 -48 -27 -27 6 -34 122
-26 105 7 317 17 885 39 252 10 549 26 1015 55 132 8 404 24 605 35 201 11
446 25 545 30 325 19 904 24 1114 10 167 -11 195 -10 207 2 13 13 13 16 -2 29
-14 12 -108 14 -558 15 -298 1 -568 0 -601 -2z"/>
</g>
</svg>
