<?xml version="1.0" standalone="no"?>
<!DOCTYPE svg PUBLIC "-//W3C//DTD SVG 20010904//EN"
 "http://www.w3.org/TR/2001/REC-SVG-20010904/DTD/svg10.dtd">
<svg version="1.0" xmlns="http://www.w3.org/2000/svg"
 width="596.000000pt" height="505.000000pt" viewBox="0 0 596.000000 505.000000"
 preserveAspectRatio="xMidYMid meet">
<metadata>
Created by potrace 1.15, written by Peter Selinger 2001-2017
</metadata>
<g transform="translate(0.000000,505.000000) scale(0.100000,-0.100000)"
fill="#000000" stroke="none">
<path d="M1512 5035 c-28 -21 -28 -51 1 -69 12 -8 80 -30 150 -50 340 -95 554
-224 636 -382 69 -133 67 -390 -3 -602 -49 -147 -207 -370 -351 -496 -220
-192 -544 -352 -783 -387 -47 -6 -133 -9 -195 -7 -257 12 -474 106 -643 280
-139 143 -217 317 -217 488 -1 111 17 188 78 341 79 196 185 359 325 499 141
142 302 239 452 275 192 45 430 -20 453 -125 8 -37 27 -52 62 -48 26 3 28 6
27 51 -1 133 -169 227 -404 227 -229 0 -450 -107 -660 -319 -123 -123 -214
-254 -294 -421 -140 -293 -166 -481 -96 -692 56 -167 130 -279 259 -393 274
-242 690 -323 1052 -205 319 105 635 316 812 543 194 249 254 405 264 687 5
125 2 167 -11 220 -36 141 -104 242 -220 327 -119 88 -360 190 -583 247 -34 9
-68 19 -75 21 -7 3 -23 -2 -36 -10z"/>
<path d="M4630 4488 c-104 -37 -230 -127 -318 -228 -138 -160 -219 -312 -274
-519 -29 -110 -36 -334 -13 -421 40 -156 145 -283 286 -349 133 -62 230 -83
409 -88 217 -7 358 21 520 103 140 71 296 220 361 346 74 144 94 355 50 521
-40 153 -168 347 -287 439 -175 133 -353 200 -569 213 -88 5 -108 3 -165 -17z
m244 -106 c34 -16 78 -43 98 -61 50 -44 98 -38 98 12 0 23 22 17 100 -26 158
-87 269 -203 345 -361 50 -104 65 -173 65 -295 0 -150 -40 -264 -133 -378
-170 -211 -434 -317 -750 -300 -333 17 -543 161 -588 402 -16 84 -5 241 24
356 53 207 134 348 286 499 183 181 305 222 455 152z"/>
<path d="M1168 3913 c-65 -55 -74 -82 -33 -109 24 -16 27 -15 63 10 65 45 86
32 125 -76 28 -77 85 -164 138 -213 82 -74 222 -95 355 -54 120 37 213 154
159 199 -23 19 -61 3 -84 -35 -42 -72 -181 -111 -283 -81 -45 13 -65 26 -103
69 -26 28 -59 77 -72 107 -86 191 -103 210 -186 210 -35 0 -53 -6 -79 -27z"/>
<path d="M792 3846 c-17 -19 -33 -43 -36 -53 -2 -10 -12 -45 -21 -78 -25 -89
-38 -105 -86 -105 -67 0 -181 21 -231 42 -58 25 -95 18 -104 -18 -5 -18 -1
-31 12 -43 47 -44 280 -88 374 -71 53 10 90 48 110 113 7 23 19 64 27 90 10
31 24 54 41 65 46 29 53 50 26 76 -28 28 -78 20 -112 -18z"/>
<path d="M3481 3185 c-34 -25 -61 -49 -61 -55 0 -5 -39 -49 -87 -97 -130 -133
-265 -300 -319 -398 -10 -18 -26 -21 -185 -28 -96 -5 -223 -8 -284 -9 -74 0
-118 -4 -137 -14 -15 -8 -34 -14 -44 -14 -9 0 -33 -13 -53 -29 -20 -16 -45
-30 -56 -33 -15 -3 -20 -11 -19 -34 l2 -31 -102 -11 c-55 -7 -135 -12 -176
-12 -53 0 -82 -5 -98 -16 -23 -16 -66 -15 -141 3 l-24 6 7 193 c4 106 4 209 0
229 -8 43 -39 63 -72 46 -19 -10 -21 -23 -26 -223 -3 -117 -7 -226 -8 -243 -1
-16 2 -100 6 -185 9 -205 13 -201 -124 -177 -125 21 -178 47 -275 138 -109
101 -176 122 -192 61 -5 -20 0 -30 21 -46 14 -12 66 -54 114 -94 48 -40 114
-86 147 -102 55 -27 168 -55 255 -63 l35 -3 6 -166 c11 -293 17 -326 61 -340
4 -2 13 -66 18 -143 19 -265 87 -768 141 -1050 12 -63 20 -118 17 -121 -4 -3
-30 -1 -60 5 -169 34 -529 33 -863 -4 -71 -8 -175 -17 -231 -21 l-101 -6 -5
26 c-3 15 -4 64 -2 109 2 45 9 206 14 357 6 151 16 352 21 445 6 94 14 436 19
760 6 440 12 619 24 705 22 159 25 170 53 212 20 29 22 40 14 57 -13 23 -43
35 -69 27 -24 -8 -49 -52 -62 -112 -34 -150 -42 -268 -50 -814 -5 -305 -18
-742 -29 -970 -31 -650 -34 -771 -22 -818 16 -59 41 -72 131 -72 74 1 113 4
445 34 289 27 510 21 782 -20 36 -6 45 -3 67 19 33 33 33 52 0 214 -38 193
-112 713 -129 912 -8 97 -22 265 -30 375 -8 109 -19 204 -24 210 -15 18 -25
141 -14 161 9 15 27 18 129 20 261 6 443 16 523 31 62 11 86 12 91 4 4 -6 16
-13 26 -14 14 -2 45 -55 114 -194 52 -105 100 -197 107 -203 8 -8 9 -18 3 -29
-20 -38 59 -97 107 -79 12 4 31 25 42 46 11 21 57 75 103 119 46 45 95 95 109
110 15 16 57 58 93 94 37 36 82 83 99 105 17 22 51 60 75 85 25 25 60 68 79
97 32 47 41 54 102 73 76 24 337 145 364 169 11 9 60 36 110 61 73 36 93 50
95 69 4 22 1 23 -32 17 -54 -10 -205 -71 -315 -126 -53 -26 -106 -51 -118 -55
-13 -3 -23 -11 -23 -16 0 -20 42 -6 155 52 64 33 119 58 122 55 11 -11 -275
-148 -376 -180 -46 -15 -85 -26 -86 -24 -9 9 319 198 423 243 46 21 62 33 62
47 0 19 1 19 18 -3 11 -12 21 -18 24 -13 3 5 -17 41 -45 81 -29 39 -79 116
-111 170 -62 102 -148 238 -197 309 -16 23 -33 54 -39 68 -10 28 -30 36 -30
12 0 -8 16 -38 36 -67 20 -30 50 -76 66 -104 l28 -50 -53 57 c-29 32 -66 80
-81 108 -27 50 -27 52 -10 72 35 37 53 41 74 16 11 -13 19 -29 20 -35 0 -7 5
-13 10 -13 6 0 20 -21 30 -46 11 -25 33 -65 49 -87 16 -23 84 -133 151 -245
86 -142 126 -200 133 -193 7 7 6 16 -5 28 -8 10 -63 99 -123 198 -59 99 -123
204 -142 233 -19 29 -33 55 -30 58 7 7 87 -103 139 -191 47 -80 99 -156 151
-223 15 -19 27 -40 27 -47 0 -21 40 -65 60 -65 29 0 31 25 4 61 -13 18 -24 38
-24 45 0 6 -7 18 -16 25 -17 14 -86 111 -120 170 l-21 36 24 21 c37 33 29 123
-15 167 -31 31 -85 34 -108 6 -16 -18 -19 -16 -83 52 -104 112 -119 127 -129
127 -5 0 -37 -20 -71 -45z m-5 -167 c15 -24 58 -79 96 -122 81 -95 184 -246
226 -334 l30 -64 -53 -23 c-29 -13 -82 -42 -119 -64 -36 -23 -69 -41 -72 -41
-3 0 -60 -33 -125 -72 -92 -56 -119 -77 -115 -90 3 -14 -30 -40 -138 -112
-140 -92 -218 -157 -365 -302 -41 -40 -78 -71 -82 -68 -13 8 -77 150 -136 299
-29 77 -72 178 -93 225 -22 47 -44 105 -50 130 -5 25 -16 63 -24 85 -9 22 -15
50 -16 63 0 21 4 22 63 21 34 -1 168 2 298 6 l237 8 17 -34 c10 -19 60 -92
112 -163 52 -71 101 -143 110 -159 10 -21 18 -26 25 -19 10 10 -82 158 -163
262 -14 19 -43 63 -63 97 l-36 61 20 24 c10 12 54 70 97 128 79 107 260 300
281 300 7 0 24 -19 38 -42z m-1100 -560 c9 -29 28 -76 41 -104 27 -57 114
-306 109 -311 -4 -5 -30 58 -73 179 -21 59 -43 108 -50 108 -9 0 -33 51 -49
108 -2 6 -8 12 -14 12 -18 0 -1 -50 55 -165 60 -123 70 -151 57 -159 -5 -3
-28 45 -53 107 -24 61 -52 118 -61 126 -16 14 -55 110 -47 114 2 1 18 9 34 19
17 9 31 17 32 17 1 1 9 -23 19 -51z m-77 -139 c11 -14 29 -50 41 -80 12 -30
31 -76 41 -103 11 -27 19 -50 17 -51 -3 -4 -351 -24 -388 -23 -52 1 -69 -2
-84 -17 -11 -11 -39 -15 -114 -15 l-99 0 -7 53 c-3 28 -6 92 -6 140 l0 89 38
-6 c115 -17 182 -17 214 -2 19 10 79 20 146 26 63 5 116 11 119 13 13 14 64
-1 82 -24z m302 -366 c57 -146 136 -303 152 -303 7 0 75 62 153 138 129 128
254 232 314 261 14 7 5 -4 -20 -25 -25 -20 -120 -113 -212 -205 -92 -93 -174
-169 -183 -169 -8 0 -15 -9 -15 -20 0 -11 5 -20 11 -20 5 0 85 76 177 168 92
92 176 174 187 182 37 27 -307 -348 -350 -382 -20 -15 -25 -27 -21 -44 3 -12
1 -26 -4 -29 -17 -10 -38 14 -33 36 3 11 -2 28 -11 38 -23 26 -168 320 -162
330 3 4 -3 39 -14 77 -22 76 -22 74 -16 74 2 0 23 -48 47 -107z"/>
<path d="M5136 2915 c-8 -9 -18 -32 -22 -53 -48 -283 -211 -756 -315 -912 -9
-14 -24 -50 -34 -80 -25 -79 -179 -368 -220 -415 -41 -45 -53 -80 -37 -106 10
-15 -10 -63 -123 -291 -194 -395 -294 -574 -349 -629 -53 -54 -61 -92 -22
-110 18 -9 31 -7 62 9 21 10 80 30 129 43 79 20 113 23 285 23 165 0 211 -3
297 -22 132 -29 237 -68 376 -140 217 -113 498 -206 624 -207 78 0 106 13 147
69 43 57 19 233 -84 621 -284 1070 -321 1227 -384 1665 -20 135 -39 262 -42
283 -7 47 -42 74 -73 57 -27 -14 -27 -18 14 -303 66 -455 83 -532 306 -1382
152 -580 179 -699 186 -801 5 -88 5 -92 -17 -104 -36 -19 -101 -13 -215 20
-163 48 -257 84 -422 166 -84 41 -185 86 -223 99 -194 66 -440 93 -640 71 -69
-8 -133 -18 -143 -21 -18 -8 32 95 121 250 19 33 98 191 176 350 78 160 181
360 227 445 47 85 91 169 98 187 7 17 21 39 32 49 10 9 19 23 19 30 0 29 44
144 55 144 48 0 119 172 85 206 -6 6 12 71 51 184 61 177 136 453 146 544 5
40 3 51 -12 62 -24 18 -40 18 -59 -1z"/>
</g>
</svg>
