<?xml version="1.0" standalone="no"?>
<!DOCTYPE svg PUBLIC "-//W3C//DTD SVG 20010904//EN"
 "http://www.w3.org/TR/2001/REC-SVG-20010904/DTD/svg10.dtd">
<svg version="1.0" xmlns="http://www.w3.org/2000/svg"
 width="463.000000pt" height="454.000000pt" viewBox="0 0 463.000000 454.000000"
 preserveAspectRatio="xMidYMid meet">
<metadata>
Created by potrace 1.15, written by Peter Selinger 2001-2017
</metadata>
<g transform="translate(0.000000,454.000000) scale(0.100000,-0.100000)"
fill="#000000" stroke="none">
<path d="M703 4514 c-262 -56 -494 -275 -629 -595 -90 -214 -89 -363 4 -544
54 -105 181 -228 292 -283 146 -72 306 -100 465 -81 212 26 490 169 664 341
102 101 203 255 236 360 30 93 45 267 32 359 -19 140 -115 252 -289 337 -101
50 -315 122 -363 122 -26 0 -44 -35 -27 -52 5 -5 56 -23 113 -39 281 -82 440
-186 483 -317 34 -100 27 -261 -15 -392 -26 -80 -131 -242 -208 -319 -157
-159 -418 -299 -616 -330 -265 -41 -564 85 -684 287 -104 174 -112 295 -35
497 104 270 308 488 531 567 109 38 290 20 340 -34 12 -13 26 -35 32 -51 21
-55 78 -41 67 17 -24 116 -212 188 -393 150z"/>
<path d="M3695 4510 c-113 -24 -282 -170 -366 -315 -73 -126 -119 -283 -119
-412 l0 -52 -54 -24 c-81 -37 -160 -101 -226 -183 -63 -79 -124 -181 -135
-227 -9 -34 -15 -37 -68 -43 -23 -2 -55 -9 -72 -16 -54 -21 -159 -95 -206
-144 -52 -55 -237 -297 -247 -322 -13 -36 -28 -39 -232 -47 -275 -11 -262 -9
-287 -23 -11 -6 -27 -25 -34 -41 -12 -26 -19 -30 -73 -36 -34 -4 -94 -9 -134
-11 -41 -1 -87 -6 -103 -9 -16 -4 -47 -4 -69 0 l-40 7 0 168 c0 133 -3 170
-14 179 -10 9 -20 9 -34 2 -17 -9 -19 -24 -21 -162 -1 -96 -6 -157 -13 -166
-8 -10 -8 -20 1 -39 6 -14 11 -70 11 -124 0 -118 -3 -122 -93 -105 -89 18
-104 26 -190 99 -57 48 -86 66 -107 66 -44 0 -49 -48 -7 -68 12 -5 48 -33 80
-61 32 -28 75 -60 95 -70 37 -19 138 -43 179 -43 28 -1 33 -28 33 -199 0 -142
9 -189 35 -189 9 0 15 -9 16 -22 0 -13 2 -41 4 -63 2 -22 6 -71 10 -110 11
-133 82 -619 104 -718 9 -38 9 -38 -18 -32 -74 16 -192 22 -346 19 -93 -2
-179 -6 -190 -8 -11 -2 -93 -10 -183 -17 -140 -11 -165 -11 -172 1 -5 8 -7 48
-5 90 2 41 7 147 10 235 7 197 15 385 20 445 2 25 7 209 10 410 8 545 17 658
56 708 22 28 15 50 -18 59 -74 18 -101 -144 -103 -599 0 -169 -2 -313 -4 -320
-3 -7 -7 -110 -11 -228 -4 -118 -8 -228 -10 -245 -2 -16 -7 -133 -10 -260 -4
-126 -9 -241 -11 -255 -6 -43 15 -100 42 -112 24 -11 200 -3 384 19 104 12
413 8 508 -6 85 -13 95 -13 110 2 21 21 19 65 -6 197 -19 95 -63 386 -76 500
-10 83 -22 236 -31 380 -4 58 -13 134 -21 170 -24 106 -25 110 -14 110 5 0 10
7 10 15 0 12 14 14 68 13 188 -4 343 5 448 27 16 4 23 -1 27 -16 4 -14 11 -20
20 -16 10 4 28 -24 63 -96 27 -56 63 -128 81 -159 17 -32 27 -60 22 -63 -27
-17 18 -65 61 -65 23 0 33 6 39 24 9 22 81 103 204 229 l58 59 22 -20 c36 -33
146 -80 232 -97 127 -26 321 -19 411 15 22 9 24 7 19 -13 -48 -219 -141 -525
-169 -557 -17 -19 -102 -187 -111 -220 -12 -42 -125 -253 -150 -280 -37 -41
-47 -67 -34 -88 10 -16 -3 -48 -79 -203 -146 -295 -230 -442 -263 -460 -23
-12 -25 -42 -3 -60 12 -10 20 -10 34 -1 38 23 186 54 279 57 188 5 343 -31
529 -124 188 -94 408 -161 484 -147 19 3 48 19 63 34 27 26 27 29 22 117 -3
61 -21 152 -54 282 -28 106 -48 193 -46 193 2 0 39 -18 83 -40 137 -69 353
-140 425 -140 49 0 100 25 114 56 29 65 15 147 -110 624 -43 168 -79 309 -79
313 0 4 45 -15 100 -43 116 -58 190 -87 317 -124 105 -30 151 -32 198 -11 89
43 81 105 -106 818 -116 445 -164 663 -199 917 -25 185 -35 220 -60 220 -40 0
-41 -18 -5 -251 56 -362 57 -366 235 -1049 79 -303 114 -451 123 -522 9 -65
-9 -82 -77 -75 -75 8 -252 69 -384 133 -65 31 -127 60 -140 65 -29 11 -36 32
-77 209 -34 150 -61 298 -94 529 l-20 133 22 47 c12 25 27 49 34 54 7 4 15 24
19 45 7 37 31 93 44 102 17 12 53 97 52 125 0 16 21 96 48 177 50 148 100 345
100 391 0 16 -7 26 -20 30 -22 6 -50 -16 -50 -39 0 -9 -12 -66 -27 -127 l-27
-112 -7 75 c-4 41 -15 97 -24 124 -9 26 -15 49 -13 51 2 1 30 10 63 20 148 42
298 150 374 270 99 155 98 378 -2 555 -43 78 -168 198 -250 243 -120 66 -311
107 -402 87z m125 -79 c28 -11 66 -33 85 -50 20 -17 40 -31 45 -31 12 0 40 29
40 41 0 21 145 -68 199 -122 147 -145 199 -337 141 -521 -43 -138 -193 -273
-359 -322 -88 -26 -101 -22 -140 35 -97 143 -322 264 -504 270 l-47 2 0 54 c0
75 26 195 62 280 80 194 274 377 405 382 13 1 45 -8 73 -18z m-581 -831 c28
-77 105 -162 183 -201 84 -42 211 -70 322 -70 l93 0 18 -52 c23 -70 31 -196
15 -266 -19 -85 -56 -149 -129 -222 -97 -97 -287 -187 -312 -148 -5 8 -9 32
-9 55 0 60 -36 159 -86 240 -48 79 -152 183 -214 214 -22 11 -49 31 -62 43
-17 18 -43 27 -98 36 -122 21 -117 14 -71 106 69 136 172 246 284 303 23 12
43 22 43 22 1 0 11 -27 23 -60z m134 39 c23 -12 54 -33 69 -46 30 -28 54 -26
66 7 7 20 9 19 72 -12 61 -31 210 -162 210 -185 0 -21 -210 6 -298 39 -82 31
-174 123 -197 196 -5 18 -2 22 15 22 11 0 40 -9 63 -21z m-592 -460 c11 -6 49
-12 84 -14 58 -2 67 -6 91 -34 26 -31 57 -40 69 -21 8 13 54 -11 123 -63 54
-41 122 -127 160 -202 40 -80 61 -215 36 -236 -16 -13 -18 -41 -5 -54 18 -18
-31 -138 -79 -195 -127 -152 -287 -222 -505 -221 -158 0 -306 42 -359 100 -18
20 -18 22 -2 40 26 28 11 46 -21 26 l-24 -16 16 25 c16 25 16 26 -1 28 -11 0
-26 1 -35 0 -27 -2 -42 48 -46 153 -1 55 0 94 3 88 3 -7 10 -13 15 -13 13 0
11 44 -2 57 -13 13 22 145 58 218 105 209 329 386 424 334z m1033 -456 c-8
-26 -20 -56 -28 -67 -7 -12 -19 -39 -26 -61 -21 -67 -110 -236 -156 -298 -33
-44 -42 -65 -38 -82 4 -17 -9 -54 -43 -122 -57 -116 -52 -107 -57 -102 -2 2
16 64 40 137 49 145 104 361 104 404 0 24 -4 28 -30 28 -23 0 -31 -5 -34 -22
-48 -220 -139 -516 -162 -525 -13 -5 -114 -203 -114 -223 0 -6 -4 -9 -9 -6 -5
3 -12 32 -15 63 -10 85 -24 123 -46 123 -37 0 -39 -20 -18 -163 26 -174 26
-175 -86 -336 -27 -39 -28 -42 -12 -60 16 -17 13 -26 -54 -167 -104 -217 -240
-463 -277 -501 -37 -36 -41 -54 -17 -74 12 -10 20 -10 34 -1 35 22 179 52 266
56 127 6 334 -23 382 -53 7 -4 30 -72 51 -152 81 -300 100 -420 71 -440 -43
-29 -284 42 -480 141 -119 61 -254 103 -360 115 -130 14 -160 14 -245 5 -49
-6 -98 -13 -107 -16 -12 -3 0 26 39 98 31 57 111 216 179 353 152 306 213 425
229 445 7 8 16 26 20 40 17 57 48 120 60 120 19 0 59 90 57 129 0 18 22 101
49 185 75 224 116 416 89 416 -25 0 -5 18 57 50 76 39 174 130 221 204 29 45
52 104 66 167 5 23 12 27 53 33 97 13 266 106 337 185 11 11 20 21 22 21 1 0
-4 -21 -12 -47z m-1599 -37 c9 -3 10 -16 4 -48 -4 -24 -8 -70 -9 -102 0 -33
-3 -57 -6 -53 -3 3 -27 -4 -52 -15 -26 -11 -62 -20 -81 -19 -19 0 -44 -8 -59
-19 -13 -11 -31 -20 -38 -20 -8 0 -14 -4 -14 -10 0 -17 30 -11 57 10 14 11 39
20 54 20 16 0 52 9 81 20 28 11 53 19 54 17 1 -1 5 -23 9 -49 7 -45 6 -47 -23
-62 -17 -9 -49 -16 -70 -16 -27 0 -50 -8 -75 -27 -20 -16 -36 -31 -37 -35 0
-16 25 -7 51 18 19 18 39 26 72 28 25 1 57 10 71 19 26 17 26 17 39 -15 13
-31 12 -34 -17 -57 -17 -13 -68 -61 -113 -105 -45 -44 -84 -78 -87 -75 -12 13
-71 141 -106 231 -23 57 -54 132 -70 168 -27 63 -60 166 -60 190 0 8 11 10 33
7 17 -3 75 -2 127 1 101 7 244 6 265 -2z m-511 -205 c20 -51 35 -95 33 -97 -6
-7 -102 -14 -219 -18 -65 -2 -124 -8 -130 -13 -19 -14 -139 -7 -149 9 -5 7 -9
49 -9 93 l0 80 76 -5 c41 -3 84 -2 96 3 11 4 43 9 71 12 149 14 178 18 183 27
8 13 7 15 48 -91z m150 -86 c53 -152 151 -361 172 -369 20 -8 62 27 164 137
45 48 86 87 92 87 13 0 -25 -45 -143 -168 -55 -57 -97 -107 -94 -112 8 -14 -6
-40 -22 -40 -10 0 -13 6 -9 16 3 8 -3 32 -13 52 -83 159 -111 230 -183 461
-16 55 13 1 36 -64z m1866 -192 c23 -169 52 -329 87 -481 19 -85 33 -156 30
-158 -2 -3 -24 0 -48 6 -109 26 -295 31 -406 11 -26 -5 -49 -9 -49 -8 -1 1 21
43 49 92 27 50 110 210 183 358 74 147 136 267 138 267 2 0 9 -39 16 -87z m11
-692 c31 -5 74 -14 96 -20 46 -13 29 35 139 -391 118 -456 135 -550 104 -571
-42 -29 -283 42 -471 138 l-113 58 -53 205 c-62 239 -108 428 -117 485 -4 22
-9 48 -12 57 -13 46 243 69 427 39z m-472 -164 c13 -61 53 -220 87 -351 35
-132 62 -241 60 -243 -2 -2 -29 3 -61 12 -32 8 -88 17 -124 20 -36 4 -84 8
-105 10 -38 5 -203 -10 -238 -21 -11 -3 3 30 44 108 64 118 264 516 279 556
18 47 34 23 58 -91z"/>
<path d="M832 3696 c-31 -29 -35 -38 -26 -53 17 -27 43 -28 70 -2 34 32 51 19
85 -64 58 -144 152 -214 278 -205 44 3 83 14 117 31 86 44 120 126 56 135 -15
2 -25 -5 -36 -26 -28 -55 -144 -87 -220 -62 -48 15 -105 87 -134 168 -42 113
-117 144 -190 78z"/>
<path d="M583 3675 c-13 -9 -29 -39 -38 -73 -31 -107 -32 -107 -109 -104 -37
1 -92 11 -122 22 -30 10 -61 17 -69 14 -17 -7 -26 -30 -19 -47 10 -28 162 -66
251 -63 50 1 58 4 84 36 16 19 29 39 29 45 0 6 7 34 15 62 10 35 21 52 35 56
43 11 32 67 -14 67 -12 0 -31 -7 -43 -15z"/>
</g>
</svg>
